{
	"asset":{
		"generator":"Khronos glTF Blender I/O v4.0.44",
		"version":"2.0"
	},
	"scene":0,
	"scenes":[
		{
			"name":"Scene",
			"nodes":[
				26
			]
		}
	],
	"nodes":[
		{
			"name":"Thumb_Tip_R",
			"rotation":[
				-0.10161899030208588,
				-0.01364871859550476,
				-0.02834848314523697,
				0.9943257570266724
			],
			"scale":[
				0.9999999403953552,
				0.9999997615814209,
				0.9999999403953552
			],
			"translation":[
				6.51925802230835e-09,
				2.2351741790771484e-08,
				-0.02929672598838806
			]
		},
		{
			"children":[
				0
			],
			"name":"Thumb_Distal_R",
			"rotation":[
				-0.044562384486198425,
				0.030290789902210236,
				0.10555171966552734,
				0.9929528832435608
			],
			"scale":[
				0.9999998807907104,
				0.9999998211860657,
				1
			],
			"translation":[
				8.381903171539307e-09,
				-1.0710209608078003e-08,
				-0.04202801734209061
			]
		},
		{
			"children":[
				1
			],
			"name":"Thumb_Proximal_R",
			"rotation":[
				-0.0843188464641571,
				0.0483822226524353,
				-0.15764793753623962,
				0.9826986193656921
			],
			"scale":[
				1,
				1,
				0.9999998807907104
			],
			"translation":[
				1.0011717677116394e-08,
				-9.313225746154785e-10,
				-0.03462890908122063
			]
		},
		{
			"children":[
				2
			],
			"name":"Thumb_Metacarpal_R",
			"rotation":[
				0.12128357589244843,
				0.33921074867248535,
				0.5607583522796631,
				0.7455042004585266
			],
			"scale":[
				0.9999999403953552,
				1,
				0.9999999403953552
			],
			"translation":[
				-0.03245075047016144,
				-0.016643445938825607,
				-0.03650035336613655
			]
		},
		{
			"name":"Index_Tip_R",
			"rotation":[
				0.11100175976753235,
				-0.013271015137434006,
				-0.004024858586490154,
				0.993723452091217
			],
			"scale":[
				1,
				0.9999999403953552,
				1
			],
			"translation":[
				3.026798367500305e-09,
				4.6566128730773926e-09,
				-0.027369976043701172
			]
		},
		{
			"children":[
				4
			],
			"name":"Index_Distal_R",
			"rotation":[
				-0.022706888616085052,
				-0.00405860086902976,
				-0.0005321122007444501,
				0.9997338056564331
			],
			"scale":[
				1,
				0.9999999403953552,
				1
			],
			"translation":[
				1.4842953532934189e-08,
				-9.778887033462524e-09,
				-0.03155383840203285
			]
		},
		{
			"children":[
				5
			],
			"name":"Index_Intermediate_R",
			"rotation":[
				-0.1617865264415741,
				-0.012681634165346622,
				0.03935682401061058,
				0.9859591126441956
			],
			"scale":[
				1,
				1,
				0.9999999403953552
			],
			"translation":[
				-4.270987119525671e-09,
				-7.916241884231567e-09,
				-0.04231998324394226
			]
		},
		{
			"children":[
				6
			],
			"name":"Index_Proximal_R",
			"rotation":[
				-0.06649625301361084,
				0.06828506290912628,
				-0.010533327236771584,
				0.9953916072845459
			],
			"scale":[
				0.9999999403953552,
				0.9999998807907104,
				1
			],
			"translation":[
				7.433072823914699e-09,
				3.4924596548080444e-10,
				-0.06692802160978317
			]
		},
		{
			"children":[
				7
			],
			"name":"Index_Metacarpal_R",
			"rotation":[
				0.044158969074487686,
				0.03660917654633522,
				-0.0026441053487360477,
				0.9983500242233276
			],
			"translation":[
				-0.0212374497205019,
				-0.009878728538751602,
				-0.03869425877928734
			]
		},
		{
			"name":"Middle_Tip_R",
			"rotation":[
				0.021058762446045876,
				0.006934572476893663,
				0.006356865633279085,
				0.9997339844703674
			],
			"scale":[
				0.9999999403953552,
				1.0000001192092896,
				1
			],
			"translation":[
				-3.725290298461914e-09,
				3.3760443329811096e-09,
				-0.02834913320839405
			]
		},
		{
			"children":[
				9
			],
			"name":"Middle_Distal_R",
			"rotation":[
				0.017451945692300797,
				-0.00626856554299593,
				0.023768214508891106,
				0.9995455145835876
			],
			"scale":[
				0.9999999403953552,
				0.9999999403953552,
				1.0000001192092896
			],
			"translation":[
				-1.6880221664905548e-09,
				-1.9514118321239948e-08,
				-0.033212438225746155
			]
		},
		{
			"children":[
				10
			],
			"name":"Middle_Intermediate_R",
			"rotation":[
				-0.11919485777616501,
				0.011441854760050774,
				0.015290003269910812,
				0.9926872253417969
			],
			"scale":[
				0.9999999403953552,
				1,
				1
			],
			"translation":[
				4.976755008101463e-09,
				1.8004357116296887e-08,
				-0.050165340304374695
			]
		},
		{
			"children":[
				11
			],
			"name":"Middle_Proximal_R",
			"rotation":[
				-0.11677626520395279,
				-0.019064845517277718,
				0.031222954392433167,
				0.9924842715263367
			],
			"scale":[
				1,
				0.9999998807907104,
				0.9999999403953552
			],
			"translation":[
				4.656612873077393e-10,
				7.32688931748271e-09,
				-0.06969210505485535
			]
		},
		{
			"children":[
				12
			],
			"name":"Middle_Metacarpal_R",
			"rotation":[
				0.038416165858507156,
				-0.01307611633092165,
				-0.02005111053586006,
				0.9989750981330872
			],
			"scale":[
				0.9999999403953552,
				0.9999999403953552,
				1
			],
			"translation":[
				-0.003980335779488087,
				-0.00802302360534668,
				-0.03639240935444832
			]
		},
		{
			"name":"Ring_Tip_R",
			"rotation":[
				-0.0420551635324955,
				0.04933872073888779,
				0.008204584009945393,
				0.9978625774383545
			],
			"scale":[
				0.9999999403953552,
				1,
				0.9999999403953552
			],
			"translation":[
				-5.587935447692871e-09,
				-4.656612873077393e-10,
				-0.027964413166046143
			]
		},
		{
			"children":[
				14
			],
			"name":"Ring_Distal_R",
			"rotation":[
				-0.016906265169382095,
				0.005476039368659258,
				-0.0102655915543437,
				0.9997894167900085
			],
			"scale":[
				0.9999999403953552,
				0.9999999403953552,
				1
			],
			"translation":[
				1.1874362826347351e-08,
				-1.3504177331924438e-08,
				-0.03258451446890831
			]
		},
		{
			"children":[
				15
			],
			"name":"Ring_Intermediate_R",
			"rotation":[
				-0.09675418585538864,
				0.00877590011805296,
				0.02694929763674736,
				0.9949046969413757
			],
			"scale":[
				0.9999999403953552,
				1,
				0.9999998807907104
			],
			"translation":[
				-9.080395102500916e-09,
				2.10711732506752e-08,
				-0.045410655438899994
			]
		},
		{
			"children":[
				16
			],
			"name":"Ring_Proximal_R",
			"rotation":[
				-0.07435417920351028,
				-0.07828159630298615,
				0.06187412515282631,
				0.99222731590271
			],
			"scale":[
				1,
				1,
				1.0000001192092896
			],
			"translation":[
				-2.890942596422974e-09,
				2.6119778340216726e-08,
				-0.06190159544348717
			]
		},
		{
			"children":[
				17
			],
			"name":"Ring_Metacarpal_R",
			"rotation":[
				-0.004501876886934042,
				-0.026127109304070473,
				0.00032128061866387725,
				0.9996484518051147
			],
			"translation":[
				0.01596917398273945,
				-0.006408680230379105,
				-0.03703242540359497
			]
		},
		{
			"name":"Little_Tip_R",
			"rotation":[
				-0.009390593506395817,
				-0.024790577590465546,
				-0.014298500493168831,
				0.9995462894439697
			],
			"scale":[
				1,
				1,
				0.9999999403953552
			],
			"translation":[
				1.5832483768463135e-08,
				2.0489096641540527e-08,
				-0.02086598426103592
			]
		},
		{
			"children":[
				19
			],
			"name":"Little_Distal_R",
			"rotation":[
				-0.028679514303803444,
				-0.014530530199408531,
				0.010223140008747578,
				0.999430775642395
			],
			"scale":[
				0.9999999403953552,
				1,
				0.9999999403953552
			],
			"translation":[
				4.6566128730773926e-09,
				1.862645149230957e-09,
				-0.02410365641117096
			]
		},
		{
			"children":[
				20
			],
			"name":"Little_Intermediate_R",
			"rotation":[
				-0.16624313592910767,
				-0.03715904429554939,
				-0.015001735650002956,
				0.9852702021598816
			],
			"scale":[
				1,
				0.9999999403953552,
				0.9999998807907104
			],
			"translation":[
				-6.28642737865448e-09,
				9.42964106798172e-09,
				-0.03604140132665634
			]
		},
		{
			"children":[
				21
			],
			"name":"Little_Proximal_R",
			"rotation":[
				-0.002806734526529908,
				-0.042794130742549896,
				0.09566368162631989,
				0.9944894313812256
			],
			"scale":[
				0.9999999403953552,
				1,
				1
			],
			"translation":[
				3.958120942115784e-09,
				-1.714215613901615e-08,
				-0.05130469799041748
			]
		},
		{
			"children":[
				22
			],
			"name":"Little_Metacarpal_R",
			"rotation":[
				-0.018311256542801857,
				-0.13263028860092163,
				-0.2003328800201416,
				0.9705362915992737
			],
			"scale":[
				1,
				0.9999999403953552,
				0.9999999403953552
			],
			"translation":[
				0.024493446573615074,
				-0.010031264275312424,
				-0.03628426417708397
			]
		},
		{
			"children":[
				3,
				8,
				13,
				18,
				23
			],
			"name":"Wrist_R",
			"rotation":[
				-1.1630245211335932e-07,
				5.813674874843855e-09,
				-6.592452134524299e-16,
				1
			],
			"translation":[
				0.002905468223616481,
				0.00536699965596199,
				0.06911876052618027
			]
		},
		{
			"mesh":0,
			"name":"mesh_Hand_L",
			"skin":0
		},
		{
			"children":[
				25,
				24
			],
			"name":"Armature"
		}
	],
	"materials":[
		{
			"doubleSided":true,
			"name":"Hand",
			"pbrMetallicRoughness":{
				"baseColorTexture":{
					"index":0
				},
				"metallicFactor":0,
				"roughnessFactor":0.5
			}
		}
	],
	"meshes":[
		{
			"name":"mesh_Hand_L",
			"primitives":[
				{
					"attributes":{
						"POSITION":0,
						"NORMAL":1,
						"TEXCOORD_0":2,
						"JOINTS_0":3,
						"WEIGHTS_0":4
					},
					"indices":5,
					"material":0
				}
			]
		}
	],
	"textures":[
		{
			"sampler":0,
			"source":0
		}
	],
	"images":[
		{
			"mimeType":"image/png",
			"name":"hand",
			"uri":"hand.png"
		}
	],
	"skins":[
		{
			"inverseBindMatrices":6,
			"joints":[
				24,
				3,
				2,
				1,
				0,
				8,
				7,
				6,
				5,
				4,
				13,
				12,
				11,
				10,
				9,
				18,
				17,
				16,
				15,
				14,
				23,
				22,
				21,
				20,
				19
			],
			"name":"Armature"
		}
	],
	"accessors":[
		{
			"bufferView":0,
			"componentType":5126,
			"count":1764,
			"max":[
				0.06878987699747086,
				0.02563539333641529,
				0.07026898860931396
			],
			"min":[
				-0.08980409055948257,
				-0.05188189819455147,
				-0.14461615681648254
			],
			"type":"VEC3"
		},
		{
			"bufferView":1,
			"componentType":5126,
			"count":1764,
			"type":"VEC3"
		},
		{
			"bufferView":2,
			"componentType":5126,
			"count":1764,
			"type":"VEC2"
		},
		{
			"bufferView":3,
			"componentType":5121,
			"count":1764,
			"type":"VEC4"
		},
		{
			"bufferView":4,
			"componentType":5126,
			"count":1764,
			"type":"VEC4"
		},
		{
			"bufferView":5,
			"componentType":5123,
			"count":9150,
			"type":"SCALAR"
		},
		{
			"bufferView":6,
			"componentType":5126,
			"count":25,
			"type":"MAT4"
		}
	],
	"bufferViews":[
		{
			"buffer":0,
			"byteLength":21168,
			"byteOffset":0,
			"target":34962
		},
		{
			"buffer":0,
			"byteLength":21168,
			"byteOffset":21168,
			"target":34962
		},
		{
			"buffer":0,
			"byteLength":14112,
			"byteOffset":42336,
			"target":34962
		},
		{
			"buffer":0,
			"byteLength":7056,
			"byteOffset":56448,
			"target":34962
		},
		{
			"buffer":0,
			"byteLength":28224,
			"byteOffset":63504,
			"target":34962
		},
		{
			"buffer":0,
			"byteLength":18300,
			"byteOffset":91728,
			"target":34963
		},
		{
			"buffer":0,
			"byteLength":1600,
			"byteOffset":110028
		}
	],
	"samplers":[
		{
			"magFilter":9729,
			"minFilter":9987
		}
	],
	"buffers":[
		{
			"byteLength":111628,
			"uri":"hand_r.bin"
		}
	]
}
