{
	"asset":{
		"generator":"Khronos glTF Blender I/O v4.0.44",
		"version":"2.0"
	},
	"scene":0,
	"scenes":[
		{
			"name":"Scene",
			"nodes":[
				26
			]
		}
	],
	"nodes":[
		{
			"name":"Thumb_Tip_L",
			"rotation":[
				-0.10248775035142899,
				0.0029832052532583475,
				-0.060785889625549316,
				0.9928708076477051
			],
			"translation":[
				-1.0244548320770264e-08,
				1.1175870895385742e-08,
				-0.029296722263097763
			]
		},
		{
			"children":[
				0
			],
			"name":"Thumb_Distal_L",
			"rotation":[
				-0.04226161912083626,
				-0.03342590108513832,
				-0.04838593304157257,
				0.9973742961883545
			],
			"translation":[
				1.210719347000122e-08,
				8.381903171539307e-09,
				-0.042027994990348816
			]
		},
		{
			"children":[
				1
			],
			"name":"Thumb_Proximal_L",
			"rotation":[
				-0.08135418593883514,
				-0.053216852247714996,
				0.08726536482572556,
				0.991430401802063
			],
			"scale":[
				1.0000001192092896,
				1,
				1
			],
			"translation":[
				-9.313225746154785e-09,
				1.862645149230957e-09,
				-0.03462890535593033
			]
		},
		{
			"children":[
				2
			],
			"name":"Thumb_Metacarpal_L",
			"rotation":[
				0.11908823996782303,
				-0.33998778462409973,
				-0.5559270977973938,
				0.7491137385368347
			],
			"scale":[
				0.9999999403953552,
				0.9999999403953552,
				0.9999999403953552
			],
			"translation":[
				0.03245074301958084,
				-0.0166434645652771,
				-0.03650034964084625
			]
		},
		{
			"name":"Index_Tip_L",
			"rotation":[
				0.11176866292953491,
				0.0022802939638495445,
				-0.002266032388433814,
				0.9937291145324707
			],
			"translation":[
				-1.979060471057892e-09,
				-2.5262124836444855e-08,
				-0.027370024472475052
			]
		},
		{
			"children":[
				4
			],
			"name":"Index_Distal_L",
			"rotation":[
				-0.022148272022604942,
				0.0064426083117723465,
				-0.0007624724530614913,
				0.9997336268424988
			],
			"translation":[
				6.606569513678551e-09,
				-1.0302755981683731e-08,
				-0.031553830951452255
			]
		},
		{
			"children":[
				5
			],
			"name":"Index_Intermediate_L",
			"rotation":[
				-0.16128453612327576,
				0.01797349378466606,
				0.034392934292554855,
				0.9861447215080261
			],
			"scale":[
				0.9999998807907104,
				0.9999999403953552,
				1
			],
			"translation":[
				2.3774191504344344e-09,
				-2.208980731666088e-08,
				-0.04232000187039375
			]
		},
		{
			"children":[
				6
			],
			"name":"Index_Proximal_L",
			"rotation":[
				-0.06444733589887619,
				-0.0702219009399414,
				-0.001829909160733223,
				0.9954456686973572
			],
			"scale":[
				1,
				1.0000001192092896,
				0.9999999403953552
			],
			"translation":[
				7.3705450631678104e-09,
				-2.9322109185159206e-08,
				-0.06692803651094437
			]
		},
		{
			"children":[
				7
			],
			"name":"Index_Metacarpal_L",
			"rotation":[
				0.044471390545368195,
				-0.03622892126441002,
				-0.005923055578023195,
				0.9983359575271606
			],
			"scale":[
				1,
				0.9999998807907104,
				1
			],
			"translation":[
				0.02123745158314705,
				-0.009878743439912796,
				-0.038694243878126144
			]
		},
		{
			"name":"Middle_Tip_L",
			"rotation":[
				0.01912682130932808,
				-0.01121222972869873,
				0.006025150418281555,
				0.9997360110282898
			],
			"scale":[
				0.9999999403953552,
				1.0000001192092896,
				0.9999999403953552
			],
			"translation":[
				-1.862645149230957e-09,
				-3.5099219530820847e-08,
				-0.02834913320839405
			]
		},
		{
			"children":[
				9
			],
			"name":"Middle_Distal_L",
			"rotation":[
				0.018200093880295753,
				0.0035546021535992622,
				0.023953931406140327,
				0.9995410442352295
			],
			"scale":[
				0.9999999403953552,
				1,
				1
			],
			"translation":[
				4.016328603029251e-09,
				-1.1059455573558807e-09,
				-0.03321244195103645
			]
		},
		{
			"children":[
				10
			],
			"name":"Middle_Intermediate_L",
			"rotation":[
				-0.11970812827348709,
				-0.002876745071262121,
				0.017025688663125038,
				0.9926589727401733
			],
			"scale":[
				0.9999998807907104,
				1,
				1
			],
			"translation":[
				-2.0372681319713593e-09,
				2.1253072191029787e-08,
				-0.05016530677676201
			]
		},
		{
			"children":[
				11
			],
			"name":"Middle_Proximal_L",
			"rotation":[
				-0.11712676286697388,
				0.016778260469436646,
				0.027028465643525124,
				0.9926073551177979
			],
			"scale":[
				1.0000001192092896,
				0.9999998211860657,
				0.9999999403953552
			],
			"translation":[
				-4.190951585769653e-09,
				-1.469743438065052e-08,
				-0.06969212740659714
			]
		},
		{
			"children":[
				12
			],
			"name":"Middle_Metacarpal_L",
			"rotation":[
				0.03787539154291153,
				0.014568259008228779,
				-0.01902545616030693,
				0.9989951252937317
			],
			"scale":[
				1,
				1,
				0.9999999403953552
			],
			"translation":[
				0.003980336710810661,
				-0.008023034781217575,
				-0.03639239817857742
			]
		},
		{
			"name":"Ring_Tip_L",
			"rotation":[
				-0.05545368045568466,
				-0.03358336165547371,
				0.013554406352341175,
				0.9978042840957642
			],
			"scale":[
				1,
				1,
				0.9999998807907104
			],
			"translation":[
				1.0477378964424133e-08,
				1.3969838619232178e-08,
				-0.027964390814304352
			]
		},
		{
			"children":[
				14
			],
			"name":"Ring_Distal_L",
			"rotation":[
				-0.01777101866900921,
				0.00010235610534437001,
				-0.010165655054152012,
				0.9997904300689697
			],
			"translation":[
				3.958120942115784e-09,
				4.6566128730773926e-09,
				-0.03258457034826279
			]
		},
		{
			"children":[
				15
			],
			"name":"Ring_Intermediate_L",
			"rotation":[
				-0.09529436379671097,
				0.01890283264219761,
				0.025969985872507095,
				0.9949307441711426
			],
			"translation":[
				-2.6775524020195007e-09,
				1.862645149230957e-08,
				-0.0454106330871582
			]
		},
		{
			"children":[
				16
			],
			"name":"Ring_Proximal_L",
			"rotation":[
				-0.06471165269613266,
				0.08642323315143585,
				0.05352016165852547,
				0.9927129745483398
			],
			"scale":[
				0.9999999403953552,
				0.9999999403953552,
				1
			],
			"translation":[
				-2.8200730639582616e-10,
				3.835339157376438e-09,
				-0.061901599168777466
			]
		},
		{
			"children":[
				17
			],
			"name":"Ring_Metacarpal_L",
			"rotation":[
				-0.004491185303777456,
				0.02612888254225254,
				8.73410317581147e-05,
				0.9996485114097595
			],
			"scale":[
				0.9999999403953552,
				0.9999999403953552,
				1
			],
			"translation":[
				-0.01596917398273945,
				-0.006408698856830597,
				-0.03703242167830467
			]
		},
		{
			"name":"Little_Tip_L",
			"rotation":[
				-0.006793023087084293,
				0.025623848661780357,
				0.02843225561082363,
				0.9992441534996033
			],
			"scale":[
				0.9999999403953552,
				0.9999999403953552,
				1.0000001192092896
			],
			"translation":[
				-2.7939677238464355e-09,
				-3.725290298461914e-09,
				-0.02086597867310047
			]
		},
		{
			"children":[
				19
			],
			"name":"Little_Distal_L",
			"rotation":[
				-0.027409469708800316,
				0.016804086044430733,
				-0.0024064548779278994,
				0.9994801878929138
			],
			"scale":[
				0.9999998807907104,
				1,
				0.9999999403953552
			],
			"translation":[
				4.656612873077393e-10,
				1.1175870895385742e-08,
				-0.024103667587041855
			]
		},
		{
			"children":[
				20
			],
			"name":"Little_Intermediate_L",
			"rotation":[
				-0.16431187093257904,
				0.04493604972958565,
				0.04075445607304573,
				0.9845412373542786
			],
			"scale":[
				1,
				0.9999998807907104,
				0.9999998807907104
			],
			"translation":[
				4.6566128730773926e-09,
				-2.3283064365386963e-10,
				-0.03604135289788246
			]
		},
		{
			"children":[
				21
			],
			"name":"Little_Proximal_L",
			"rotation":[
				-0.0020602887962013483,
				0.04283645376563072,
				-0.09221392124891281,
				0.9948152899742126
			],
			"scale":[
				1,
				0.9999999403953552,
				1.0000001192092896
			],
			"translation":[
				3.4924596548080444e-09,
				-4.3655745685100555e-10,
				-0.05130470171570778
			]
		},
		{
			"children":[
				22
			],
			"name":"Little_Metacarpal_L",
			"rotation":[
				-0.017384901642799377,
				0.13275481760501862,
				0.20710359513759613,
				0.9691140651702881
			],
			"scale":[
				1,
				1,
				0.9999999403953552
			],
			"translation":[
				-0.024493439123034477,
				-0.010031279176473618,
				-0.036284249275922775
			]
		},
		{
			"children":[
				3,
				8,
				13,
				18,
				23
			],
			"name":"Wrist_L",
			"translation":[
				-0.002905468223616481,
				0.0053670066408813,
				0.06911875307559967
			]
		},
		{
			"mesh":0,
			"name":"mesh_Hand_L",
			"skin":0
		},
		{
			"children":[
				25,
				24
			],
			"name":"Armature"
		}
	],
	"materials":[
		{
			"doubleSided":true,
			"name":"Hand.001",
			"pbrMetallicRoughness":{
				"baseColorTexture":{
					"index":0
				},
				"metallicFactor":0,
				"roughnessFactor":0.5
			}
		}
	],
	"meshes":[
		{
			"name":"mesh_Hand_L.001",
			"primitives":[
				{
					"attributes":{
						"POSITION":0,
						"NORMAL":1,
						"TEXCOORD_0":2,
						"JOINTS_0":3,
						"WEIGHTS_0":4
					},
					"indices":5,
					"material":0
				}
			]
		}
	],
	"textures":[
		{
			"sampler":0,
			"source":0
		}
	],
	"images":[
		{
			"mimeType":"image/png",
			"name":"hand",
			"uri":"hand.png"
		}
	],
	"skins":[
		{
			"inverseBindMatrices":6,
			"joints":[
				24,
				3,
				2,
				1,
				0,
				8,
				7,
				6,
				5,
				4,
				13,
				12,
				11,
				10,
				9,
				18,
				17,
				16,
				15,
				14,
				23,
				22,
				21,
				20,
				19
			],
			"name":"Armature"
		}
	],
	"accessors":[
		{
			"bufferView":0,
			"componentType":5126,
			"count":1764,
			"max":[
				0.08980409801006317,
				0.02563539706170559,
				0.07026899605989456
			],
			"min":[
				-0.06878984719514847,
				-0.05188190937042236,
				-0.14461615681648254
			],
			"type":"VEC3"
		},
		{
			"bufferView":1,
			"componentType":5126,
			"count":1764,
			"type":"VEC3"
		},
		{
			"bufferView":2,
			"componentType":5126,
			"count":1764,
			"type":"VEC2"
		},
		{
			"bufferView":3,
			"componentType":5121,
			"count":1764,
			"type":"VEC4"
		},
		{
			"bufferView":4,
			"componentType":5126,
			"count":1764,
			"type":"VEC4"
		},
		{
			"bufferView":5,
			"componentType":5123,
			"count":9150,
			"type":"SCALAR"
		},
		{
			"bufferView":6,
			"componentType":5126,
			"count":25,
			"type":"MAT4"
		}
	],
	"bufferViews":[
		{
			"buffer":0,
			"byteLength":21168,
			"byteOffset":0,
			"target":34962
		},
		{
			"buffer":0,
			"byteLength":21168,
			"byteOffset":21168,
			"target":34962
		},
		{
			"buffer":0,
			"byteLength":14112,
			"byteOffset":42336,
			"target":34962
		},
		{
			"buffer":0,
			"byteLength":7056,
			"byteOffset":56448,
			"target":34962
		},
		{
			"buffer":0,
			"byteLength":28224,
			"byteOffset":63504,
			"target":34962
		},
		{
			"buffer":0,
			"byteLength":18300,
			"byteOffset":91728,
			"target":34963
		},
		{
			"buffer":0,
			"byteLength":1600,
			"byteOffset":110028
		}
	],
	"samplers":[
		{
			"magFilter":9729,
			"minFilter":9987
		}
	],
	"buffers":[
		{
			"byteLength":111628,
			"uri":"hand_l.bin"
		}
	]
}
