{
	"asset":{
		"generator":"Khronos glTF Blender I/O v4.0.44",
		"version":"2.0"
	},
	"scene":0,
	"scenes":[
		{
			"name":"Scene",
			"nodes":[
				22
			]
		}
	],
	"nodes":[
		{
			"name":"RightThumbTip",
			"rotation":[
				0.10161904990673065,
				0.02834818884730339,
				0.01364865805953741,
				0.9943256974220276
			],
			"scale":[
				1,
				1,
				0.9999997615814209
			],
			"translation":[
				-1.30385160446167e-08,
				0.02929668501019478,
				-1.862645149230957e-08
			]
		},
		{
			"children":[
				0
			],
			"name":"RightThumbDistal",
			"rotation":[
				0.044562261551618576,
				-0.10555146634578705,
				-0.03029082529246807,
				0.9929529428482056
			],
			"translation":[
				7.450580596923828e-09,
				0.04202800989151001,
				-1.30385160446167e-08
			]
		},
		{
			"children":[
				1
			],
			"name":"RightThumbProximal",
			"rotation":[
				0.0843188613653183,
				0.15764781832695007,
				-0.04838232696056366,
				0.9826986789703369
			],
			"scale":[
				0.9999999403953552,
				0.9999999403953552,
				0.9999998807907104
			],
			"translation":[
				-6.05359673500061e-09,
				0.03462890163064003,
				-8.381903171539307e-09
			]
		},
		{
			"children":[
				2
			],
			"name":"RightThumbMetacarpal",
			"rotation":[
				-0.12128349393606186,
				-0.5607585310935974,
				-0.3392103910446167,
				0.7455042004585266
			],
			"translation":[
				0.03245072811841965,
				0.03650033846497536,
				0.016643447801470757
			]
		},
		{
			"name":"RightIndexTip",
			"rotation":[
				-0.11100175976753235,
				0.004024977795779705,
				0.013270985335111618,
				0.993723452091217
			],
			"scale":[
				1,
				1.0000001192092896,
				1.0000001192092896
			],
			"translation":[
				-1.30385160446167e-08,
				0.027369990944862366,
				-2.468004822731018e-08
			]
		},
		{
			"children":[
				4
			],
			"name":"RightIndexDistal",
			"rotation":[
				0.022707054391503334,
				0.0005320255295373499,
				0.0040585435926914215,
				0.9997338056564331
			],
			"scale":[
				0.9999998807907104,
				1,
				1
			],
			"translation":[
				-1.4726538211107254e-08,
				0.031553853303194046,
				1.3969838619232178e-09
			]
		},
		{
			"children":[
				5
			],
			"name":"RightIndexIntermediate",
			"rotation":[
				0.1617863029241562,
				-0.039356689900159836,
				0.012681612744927406,
				0.9859591722488403
			],
			"scale":[
				1,
				1,
				0.9999998807907104
			],
			"translation":[
				1.4805664250161499e-08,
				0.042319998145103455,
				5.587935447692871e-09
			]
		},
		{
			"children":[
				6
			],
			"name":"RightIndexProximal",
			"rotation":[
				0.022636190056800842,
				0.007697920314967632,
				-0.10525362938642502,
				0.9941579699516296
			],
			"scale":[
				0.9999999403953552,
				0.9999999403953552,
				1
			],
			"translation":[
				0.026114070788025856,
				0.10518185794353485,
				0.003964605741202831
			]
		},
		{
			"name":"RightMiddleTip",
			"rotation":[
				-0.02105860225856304,
				-0.00635678693652153,
				-0.006934573408216238,
				0.9997339844703674
			],
			"scale":[
				0.9999999403953552,
				1,
				1
			],
			"translation":[
				1.979060471057892e-09,
				0.028349120169878006,
				2.0605511963367462e-08
			]
		},
		{
			"children":[
				8
			],
			"name":"RightMiddleDistal",
			"rotation":[
				-0.017452184110879898,
				-0.023768210783600807,
				0.006268557161092758,
				0.9995455145835876
			],
			"scale":[
				1,
				0.9999998807907104,
				1.0000001192092896
			],
			"translation":[
				2.0954757928848267e-09,
				0.03321244940161705,
				2.1245796233415604e-08
			]
		},
		{
			"children":[
				9
			],
			"name":"RightMiddleIntermediate",
			"rotation":[
				0.11919465661048889,
				-0.01529000699520111,
				-0.01144183985888958,
				0.9926872253417969
			],
			"scale":[
				1,
				1,
				0.9999998807907104
			],
			"translation":[
				-6.592017598450184e-09,
				0.050165340304374695,
				2.2628228180110455e-09
			]
		},
		{
			"children":[
				10
			],
			"name":"RightMiddleProximal",
			"rotation":[
				0.07931956648826599,
				-0.009031207300722599,
				0.030881144106388092,
				0.9963298439979553
			],
			"scale":[
				0.9999998807907104,
				1,
				1
			],
			"translation":[
				0.002052223077043891,
				0.10585495829582214,
				0.00271044229157269
			]
		},
		{
			"name":"RightRingTip",
			"rotation":[
				0.04205482825636864,
				-0.008204695768654346,
				-0.04933874309062958,
				0.9978626370429993
			],
			"scale":[
				0.9999999403953552,
				1,
				0.9999999403953552
			],
			"translation":[
				2.421438694000244e-08,
				0.027964463457465172,
				8.847564458847046e-09
			]
		},
		{
			"children":[
				12
			],
			"name":"RightRingDistal",
			"rotation":[
				0.016906293109059334,
				0.010265701450407505,
				-0.005476124119013548,
				0.9997894167900085
			],
			"translation":[
				-1.4435499906539917e-08,
				0.03258451819419861,
				-5.587935447692871e-09
			]
		},
		{
			"children":[
				13
			],
			"name":"RightRingIntermediate",
			"rotation":[
				0.0967542752623558,
				-0.02694937214255333,
				-0.008775822818279266,
				0.9949046969413757
			],
			"scale":[
				1,
				1.0000001192092896,
				1
			],
			"translation":[
				1.0710209608078003e-08,
				0.04541066288948059,
				-1.548323780298233e-08
			]
		},
		{
			"children":[
				14
			],
			"name":"RightRingProximal",
			"rotation":[
				0.08038634061813354,
				-0.060580965131521225,
				0.10392342507839203,
				0.989478588104248
			],
			"scale":[
				0.9999999403953552,
				1,
				0.9999999403953552
			],
			"translation":[
				-0.019202839583158493,
				0.09884698688983917,
				0.006964774802327156
			]
		},
		{
			"name":"RightLittleTip",
			"rotation":[
				0.009390813298523426,
				0.014299114234745502,
				0.02479064278304577,
				0.9995462894439697
			],
			"scale":[
				0.9999998211860657,
				0.9999998807907104,
				1
			],
			"translation":[
				-2.3283064365386963e-08,
				0.02086593769490719,
				-5.587935447692871e-09
			]
		},
		{
			"children":[
				16
			],
			"name":"RightLittleDistal",
			"rotation":[
				0.028679346665740013,
				-0.01022324524819851,
				0.014530496671795845,
				0.999430775642395
			],
			"scale":[
				0.9999998807907104,
				0.9999999403953552,
				0.9999998807907104
			],
			"translation":[
				-9.778887033462524e-09,
				0.024103648960590363,
				7.450580596923828e-09
			]
		},
		{
			"children":[
				17
			],
			"name":"RightLittleIntermediate",
			"rotation":[
				0.16624295711517334,
				0.015001698397099972,
				0.037158988416194916,
				0.9852702617645264
			],
			"translation":[
				8.847564458847046e-09,
				0.036041390150785446,
				-1.6705598682165146e-08
			]
		},
		{
			"children":[
				18
			],
			"name":"RightLittleProximal",
			"rotation":[
				0.04219549894332886,
				0.10597213357686996,
				0.17111854255199432,
				0.9786255359649658
			],
			"scale":[
				1,
				1.0000001192092896,
				1
			],
			"translation":[
				-0.037325192242860794,
				0.08574958145618439,
				0.01458117738366127
			]
		},
		{
			"children":[
				3,
				7,
				11,
				15,
				19
			],
			"name":"RightHand",
			"rotation":[
				-1.6691329207674244e-08,
				-0.7071067690849304,
				0.7071067690849304,
				9.007882795231126e-08
			],
			"translation":[
				0.002905468223616481,
				0.00536699965596199,
				0.06911876052618027
			]
		},
		{
			"mesh":0,
			"name":"mesh_Hand_L",
			"skin":0
		},
		{
			"children":[
				21,
				20
			],
			"name":"Armature"
		}
	],
	"materials":[
		{
			"doubleSided":true,
			"name":"Hand.004",
			"pbrMetallicRoughness":{
				"baseColorTexture":{
					"index":0
				},
				"metallicFactor":0,
				"roughnessFactor":0.5
			}
		}
	],
	"meshes":[
		{
			"name":"mesh_Hand_L.004",
			"primitives":[
				{
					"attributes":{
						"POSITION":0,
						"NORMAL":1,
						"TEXCOORD_0":2,
						"JOINTS_0":3,
						"WEIGHTS_0":4
					},
					"indices":5,
					"material":0
				}
			]
		}
	],
	"textures":[
		{
			"sampler":0,
			"source":0
		}
	],
	"images":[
		{
			"mimeType":"image/png",
			"name":"hand",
			"uri":"hand.png"
		}
	],
	"skins":[
		{
			"inverseBindMatrices":6,
			"joints":[
				20,
				3,
				2,
				1,
				0,
				7,
				6,
				5,
				4,
				11,
				10,
				9,
				8,
				15,
				14,
				13,
				12,
				19,
				18,
				17,
				16
			],
			"name":"Armature"
		}
	],
	"accessors":[
		{
			"bufferView":0,
			"componentType":5126,
			"count":1752,
			"max":[
				0.06878989934921265,
				0.02563539333641529,
				0.07026898860931396
			],
			"min":[
				-0.08980407565832138,
				-0.05188187211751938,
				-0.14461615681648254
			],
			"type":"VEC3"
		},
		{
			"bufferView":1,
			"componentType":5126,
			"count":1752,
			"type":"VEC3"
		},
		{
			"bufferView":2,
			"componentType":5126,
			"count":1752,
			"type":"VEC2"
		},
		{
			"bufferView":3,
			"componentType":5121,
			"count":1752,
			"type":"VEC4"
		},
		{
			"bufferView":4,
			"componentType":5126,
			"count":1752,
			"type":"VEC4"
		},
		{
			"bufferView":5,
			"componentType":5123,
			"count":9150,
			"type":"SCALAR"
		},
		{
			"bufferView":6,
			"componentType":5126,
			"count":21,
			"type":"MAT4"
		}
	],
	"bufferViews":[
		{
			"buffer":0,
			"byteLength":21024,
			"byteOffset":0,
			"target":34962
		},
		{
			"buffer":0,
			"byteLength":21024,
			"byteOffset":21024,
			"target":34962
		},
		{
			"buffer":0,
			"byteLength":14016,
			"byteOffset":42048,
			"target":34962
		},
		{
			"buffer":0,
			"byteLength":7008,
			"byteOffset":56064,
			"target":34962
		},
		{
			"buffer":0,
			"byteLength":28032,
			"byteOffset":63072,
			"target":34962
		},
		{
			"buffer":0,
			"byteLength":18300,
			"byteOffset":91104,
			"target":34963
		},
		{
			"buffer":0,
			"byteLength":1344,
			"byteOffset":109404
		}
	],
	"samplers":[
		{
			"magFilter":9729,
			"minFilter":9987
		}
	],
	"buffers":[
		{
			"byteLength":110748,
			"uri":"hand_r.bin"
		}
	]
}
