{
	"asset":{
		"generator":"Khronos glTF Blender I/O v4.0.44",
		"version":"2.0"
	},
	"scene":0,
	"scenes":[
		{
			"name":"Scene",
			"nodes":[
				22
			]
		}
	],
	"nodes":[
		{
			"name":"LeftThumbTip",
			"rotation":[
				0.10248768329620361,
				0.060786496847867966,
				-0.0029830888379365206,
				0.9928708076477051
			],
			"scale":[
				0.9999998807907104,
				1,
				0.9999998211860657
			],
			"translation":[
				3.725290298461914e-09,
				0.02929673343896866,
				-5.587935447692871e-09
			]
		},
		{
			"children":[
				0
			],
			"name":"LeftThumbDistal",
			"rotation":[
				0.042261525988578796,
				0.04838501662015915,
				0.03342587128281593,
				0.9973743557929993
			],
			"scale":[
				1,
				1.0000001192092896,
				0.9999998807907104
			],
			"translation":[
				-1.210719347000122e-08,
				0.04202800244092941,
				-1.862645149230957e-08
			]
		},
		{
			"children":[
				1
			],
			"name":"LeftThumbProximal",
			"rotation":[
				0.08135417103767395,
				-0.08726529031991959,
				0.053216833621263504,
				0.991430401802063
			],
			"scale":[
				1,
				1.0000001192092896,
				0.9999998807907104
			],
			"translation":[
				1.3737007975578308e-08,
				0.03462890908122063,
				8.614733815193176e-09
			]
		},
		{
			"children":[
				2
			],
			"name":"LeftThumbMetacarpal",
			"rotation":[
				-0.11908827722072601,
				0.5559272766113281,
				0.33998772501945496,
				0.7491136193275452
			],
			"translation":[
				-0.03245074301958084,
				0.03650032728910446,
				0.016643457114696503
			]
		},
		{
			"name":"LeftIndexTip",
			"rotation":[
				-0.11176853626966476,
				0.0022661350667476654,
				-0.002280239947140217,
				0.9937290549278259
			],
			"scale":[
				1.0000001192092896,
				0.9999999403953552,
				1
			],
			"translation":[
				-1.3387762010097504e-09,
				0.027370013296604156,
				3.2014213502407074e-08
			]
		},
		{
			"children":[
				4
			],
			"name":"LeftIndexDistal",
			"rotation":[
				0.02214816026389599,
				0.0007624021382071078,
				-0.006442592013627291,
				0.9997336864471436
			],
			"scale":[
				1,
				0.9999998807907104,
				0.9999999403953552
			],
			"translation":[
				-6.810296326875687e-09,
				0.03155384212732315,
				1.6996636986732483e-08
			]
		},
		{
			"children":[
				5
			],
			"name":"LeftIndexIntermediate",
			"rotation":[
				0.1612844467163086,
				-0.03439272195100784,
				-0.01797357201576233,
				0.9861447215080261
			],
			"scale":[
				1,
				0.9999999403953552,
				1
			],
			"translation":[
				-8.099959813989699e-09,
				0.042319998145103455,
				1.807347871363163e-08
			]
		},
		{
			"children":[
				6
			],
			"name":"LeftIndexProximal",
			"rotation":[
				0.020420903339982033,
				0.013180413283407688,
				0.10570580512285233,
				0.9941003918647766
			],
			"scale":[
				0.9999999403953552,
				1,
				0.9999999403953552
			],
			"translation":[
				-0.026114100590348244,
				0.10518188774585724,
				0.003964646719396114
			]
		},
		{
			"name":"LeftMiddleTip",
			"rotation":[
				-0.01912674494087696,
				-0.0060253748670220375,
				0.011212216690182686,
				0.9997360706329346
			],
			"scale":[
				0.9999998807907104,
				0.9999999403953552,
				1
			],
			"translation":[
				1.3969838619232178e-09,
				0.028349170461297035,
				3.754394128918648e-08
			]
		},
		{
			"children":[
				8
			],
			"name":"LeftMiddleDistal",
			"rotation":[
				-0.018200190737843513,
				-0.023953713476657867,
				-0.003554600989446044,
				0.9995410442352295
			],
			"scale":[
				1,
				1,
				0.9999999403953552
			],
			"translation":[
				5.820766091346741e-11,
				0.033212460577487946,
				-5.034962669014931e-09
			]
		},
		{
			"children":[
				9
			],
			"name":"LeftMiddleIntermediate",
			"rotation":[
				0.11970808357000351,
				-0.017025744542479515,
				0.0028767366893589497,
				0.9926589727401733
			],
			"scale":[
				1,
				1.0000001192092896,
				1
			],
			"translation":[
				2.4156179279088974e-09,
				0.05016529932618141,
				-1.58470356836915e-08
			]
		},
		{
			"children":[
				10
			],
			"name":"LeftMiddleProximal",
			"rotation":[
				0.07870074361562729,
				-0.010458356700837612,
				-0.0324266143143177,
				0.9963158965110779
			],
			"translation":[
				-0.002052225172519684,
				0.10585499554872513,
				0.0027105167973786592
			]
		},
		{
			"name":"LeftRingTip",
			"rotation":[
				0.055453769862651825,
				-0.013554050587117672,
				0.03358336165547371,
				0.9978042840957642
			],
			"scale":[
				0.9999999403953552,
				1,
				1
			],
			"translation":[
				-8.381903171539307e-09,
				0.027964379638433456,
				-1.0244548320770264e-08
			]
		},
		{
			"children":[
				12
			],
			"name":"LeftRingDistal",
			"rotation":[
				0.01777099259197712,
				0.010165475308895111,
				-0.00010238682443741709,
				0.9997904300689697
			],
			"scale":[
				0.9999999403953552,
				1.0000001192092896,
				0.9999999403953552
			],
			"translation":[
				-3.958120942115784e-09,
				0.032584596425294876,
				-9.313225746154785e-10
			]
		},
		{
			"children":[
				13
			],
			"name":"LeftRingIntermediate",
			"rotation":[
				0.09529434889554977,
				-0.025969868525862694,
				-0.01890275813639164,
				0.9949307441711426
			],
			"scale":[
				0.9999998807907104,
				1.0000001192092896,
				0.9999999403953552
			],
			"translation":[
				5.762558430433273e-09,
				0.04541061446070671,
				-1.1641532182693481e-08
			]
		},
		{
			"children":[
				14
			],
			"name":"LeftRingProximal",
			"rotation":[
				0.0677565336227417,
				-0.05489075183868408,
				-0.1125660166144371,
				0.989810585975647
			],
			"scale":[
				1,
				1,
				0.9999999403953552
			],
			"translation":[
				0.019202820956707,
				0.09884700179100037,
				0.006964819505810738
			]
		},
		{
			"name":"LeftLittleTip",
			"rotation":[
				0.006793096661567688,
				-0.028432372957468033,
				-0.02562394179403782,
				0.9992441534996033
			],
			"scale":[
				1,
				1.0000001192092896,
				1.0000001192092896
			],
			"translation":[
				-3.725290298461914e-09,
				0.02086597867310047,
				1.6763806343078613e-08
			]
		},
		{
			"children":[
				16
			],
			"name":"LeftLittleDistal",
			"rotation":[
				0.02740948274731636,
				0.0024070064537227154,
				-0.016803929582238197,
				0.999480128288269
			],
			"translation":[
				7.916241884231567e-09,
				0.024103667587041855,
				0
			]
		},
		{
			"children":[
				17
			],
			"name":"LeftLittleIntermediate",
			"rotation":[
				0.1643117219209671,
				-0.04075455665588379,
				-0.044936276972293854,
				0.9845412373542786
			],
			"scale":[
				1,
				0.9999999403953552,
				1.0000001192092896
			],
			"translation":[
				-4.190951585769653e-09,
				0.03604135662317276,
				2.6775524020195007e-09
			]
		},
		{
			"children":[
				18
			],
			"name":"LeftLittleProximal",
			"rotation":[
				0.04040481895208359,
				-0.11619307845830917,
				-0.1715499460697174,
				0.9774646759033203
			],
			"scale":[
				1,
				1.0000001192092896,
				1
			],
			"translation":[
				0.037325143814086914,
				0.08574958890676498,
				0.014581192284822464
			]
		},
		{
			"children":[
				3,
				7,
				11,
				15,
				19
			],
			"name":"LeftHand",
			"rotation":[
				-5.338507236274381e-08,
				-0.7071067690849304,
				0.7071067690849304,
				5.338507236274381e-08
			],
			"scale":[
				1,
				0.9999997019767761,
				1
			],
			"translation":[
				-0.002905468223616481,
				0.0053670066408813,
				0.06911875307559967
			]
		},
		{
			"mesh":0,
			"name":"mesh_Hand_L",
			"skin":0
		},
		{
			"children":[
				21,
				20
			],
			"name":"Armature"
		}
	],
	"materials":[
		{
			"doubleSided":true,
			"name":"Hand.006",
			"pbrMetallicRoughness":{
				"baseColorTexture":{
					"index":0
				},
				"metallicFactor":0,
				"roughnessFactor":0.5
			}
		}
	],
	"meshes":[
		{
			"name":"mesh_Hand_L.006",
			"primitives":[
				{
					"attributes":{
						"POSITION":0,
						"NORMAL":1,
						"TEXCOORD_0":2,
						"JOINTS_0":3,
						"WEIGHTS_0":4
					},
					"indices":5,
					"material":0
				}
			]
		}
	],
	"textures":[
		{
			"sampler":0,
			"source":0
		}
	],
	"images":[
		{
			"mimeType":"image/png",
			"name":"hand",
			"uri":"hand.png"
		}
	],
	"skins":[
		{
			"inverseBindMatrices":6,
			"joints":[
				20,
				3,
				2,
				1,
				0,
				7,
				6,
				5,
				4,
				11,
				10,
				9,
				8,
				15,
				14,
				13,
				12,
				19,
				18,
				17,
				16
			],
			"name":"Armature"
		}
	],
	"accessors":[
		{
			"bufferView":0,
			"componentType":5126,
			"count":1752,
			"max":[
				0.08980411291122437,
				0.02563539706170559,
				0.07026899605989456
			],
			"min":[
				-0.06878982484340668,
				-0.051881931722164154,
				-0.14461614191532135
			],
			"type":"VEC3"
		},
		{
			"bufferView":1,
			"componentType":5126,
			"count":1752,
			"type":"VEC3"
		},
		{
			"bufferView":2,
			"componentType":5126,
			"count":1752,
			"type":"VEC2"
		},
		{
			"bufferView":3,
			"componentType":5121,
			"count":1752,
			"type":"VEC4"
		},
		{
			"bufferView":4,
			"componentType":5126,
			"count":1752,
			"type":"VEC4"
		},
		{
			"bufferView":5,
			"componentType":5123,
			"count":9150,
			"type":"SCALAR"
		},
		{
			"bufferView":6,
			"componentType":5126,
			"count":21,
			"type":"MAT4"
		}
	],
	"bufferViews":[
		{
			"buffer":0,
			"byteLength":21024,
			"byteOffset":0,
			"target":34962
		},
		{
			"buffer":0,
			"byteLength":21024,
			"byteOffset":21024,
			"target":34962
		},
		{
			"buffer":0,
			"byteLength":14016,
			"byteOffset":42048,
			"target":34962
		},
		{
			"buffer":0,
			"byteLength":7008,
			"byteOffset":56064,
			"target":34962
		},
		{
			"buffer":0,
			"byteLength":28032,
			"byteOffset":63072,
			"target":34962
		},
		{
			"buffer":0,
			"byteLength":18300,
			"byteOffset":91104,
			"target":34963
		},
		{
			"buffer":0,
			"byteLength":1344,
			"byteOffset":109404
		}
	],
	"samplers":[
		{
			"magFilter":9729,
			"minFilter":9987
		}
	],
	"buffers":[
		{
			"byteLength":110748,
			"uri":"hand_l.bin"
		}
	]
}
