{
	"asset":{
		"generator":"Khronos glTF Blender I/O v4.0.44",
		"version":"2.0"
	},
	"scene":0,
	"scenes":[
		{
			"name":"Scene",
			"nodes":[
				27
			]
		}
	],
	"nodes":[
		{
			"name":"Wrist_R",
			"rotation":[
				0,
				-1.1987374648469995e-08,
				0,
				1
			],
			"translation":[
				0.0029051187448203564,
				0.0053668636828660965,
				0.06911934912204742
			]
		},
		{
			"name":"Thumb_Tip_R",
			"rotation":[
				-0.10161905735731125,
				-0.01364869438111782,
				-0.028348447754979134,
				0.9943257570266724
			],
			"scale":[
				1,
				0.9999999403953552,
				1
			],
			"translation":[
				7.450580596923828e-09,
				1.4901161193847656e-08,
				-0.029296724125742912
			]
		},
		{
			"children":[
				1
			],
			"name":"Thumb_Distal_R",
			"rotation":[
				-0.044562265276908875,
				0.030290765687823296,
				0.10555170476436615,
				0.9929529428482056
			],
			"scale":[
				0.9999998807907104,
				0.9999998807907104,
				0.9999999403953552
			],
			"translation":[
				1.0244548320770264e-08,
				-8.381903171539307e-09,
				-0.04202801734209061
			]
		},
		{
			"children":[
				2
			],
			"name":"Thumb_Proximal_R",
			"rotation":[
				-0.0843188464641571,
				0.0483822301030159,
				-0.15764786303043365,
				0.9826986193656921
			],
			"scale":[
				0.9999999403953552,
				0.9999999403953552,
				0.9999998807907104
			],
			"translation":[
				1.792795956134796e-08,
				-4.656612873077393e-10,
				-0.03462890535593033
			]
		},
		{
			"children":[
				3
			],
			"name":"Thumb_Metacarpal_R",
			"rotation":[
				0.12128351628780365,
				0.3392108082771301,
				0.5607582926750183,
				0.7455042004585266
			],
			"scale":[
				1,
				1.0000001192092896,
				1
			],
			"translation":[
				-0.029545629397034645,
				-0.011276580393314362,
				0.03261900320649147
			]
		},
		{
			"name":"Index_Tip_R",
			"rotation":[
				0.11100181192159653,
				-0.013271025381982327,
				-0.00402485067024827,
				0.993723452091217
			],
			"scale":[
				0.9999999403953552,
				0.9999999403953552,
				0.9999999403953552
			],
			"translation":[
				-2.3283064365386963e-10,
				4.6566128730773926e-09,
				-0.027369976043701172
			]
		},
		{
			"children":[
				5
			],
			"name":"Index_Distal_R",
			"rotation":[
				-0.022706888616085052,
				-0.004058601800352335,
				-0.0005321103380993009,
				0.9997338056564331
			],
			"scale":[
				1,
				0.9999999403953552,
				0.9999999403953552
			],
			"translation":[
				1.507578417658806e-08,
				-9.778887033462524e-09,
				-0.03155383840203285
			]
		},
		{
			"children":[
				6
			],
			"name":"Index_Intermediate_R",
			"rotation":[
				-0.1617865264415741,
				-0.012681626714766026,
				0.03935682401061058,
				0.9859591126441956
			],
			"scale":[
				1,
				1,
				0.9999999403953552
			],
			"translation":[
				1.2487362255342305e-09,
				-1.0855728760361671e-08,
				-0.04231999069452286
			]
		},
		{
			"children":[
				7
			],
			"name":"Index_Proximal_R",
			"rotation":[
				-0.06649625301361084,
				0.06828504800796509,
				-0.010533326305449009,
				0.9953916072845459
			],
			"scale":[
				0.9999999403953552,
				0.9999998807907104,
				1
			],
			"translation":[
				5.550646164920181e-09,
				7.945345714688301e-09,
				-0.06692802160978317
			]
		},
		{
			"children":[
				8
			],
			"name":"Index_Metacarpal_R",
			"rotation":[
				0.04415895417332649,
				0.03660916909575462,
				-0.0026441062800586224,
				0.9983500242233276
			],
			"translation":[
				-0.018332330510020256,
				-0.0045118629932403564,
				0.03042510151863098
			]
		},
		{
			"name":"Middle_Tip_R",
			"rotation":[
				0.021058762446045876,
				0.006934574339538813,
				0.006356867495924234,
				0.9997339844703674
			],
			"scale":[
				0.9999999403953552,
				1.0000001192092896,
				1
			],
			"translation":[
				-3.14321368932724e-09,
				7.275957614183426e-09,
				-0.028349122032523155
			]
		},
		{
			"children":[
				10
			],
			"name":"Middle_Distal_R",
			"rotation":[
				0.0174519382417202,
				-0.006268566474318504,
				0.023768210783600807,
				0.9995455145835876
			],
			"scale":[
				0.9999999403953552,
				1,
				1.0000001192092896
			],
			"translation":[
				-1.5133991837501526e-09,
				-8.003553375601768e-10,
				-0.03321244940161705
			]
		},
		{
			"children":[
				11
			],
			"name":"Middle_Intermediate_R",
			"rotation":[
				-0.11919483542442322,
				0.011441851034760475,
				0.015289995819330215,
				0.9926872253417969
			],
			"scale":[
				0.9999999403953552,
				1,
				1
			],
			"translation":[
				4.212779458612204e-09,
				2.4512701202183962e-08,
				-0.05016534402966499
			]
		},
		{
			"children":[
				12
			],
			"name":"Middle_Proximal_R",
			"rotation":[
				-0.11677634716033936,
				-0.019064847379922867,
				0.031222961843013763,
				0.9924842119216919
			],
			"scale":[
				1,
				0.9999998211860657,
				0.9999999403953552
			],
			"translation":[
				6.693881005048752e-10,
				7.341441232711077e-09,
				-0.06969209760427475
			]
		},
		{
			"children":[
				13
			],
			"name":"Middle_Metacarpal_R",
			"rotation":[
				0.03841618075966835,
				-0.013076127506792545,
				-0.020051108673214912,
				0.9989750981330872
			],
			"scale":[
				0.9999999403953552,
				0.9999999403953552,
				1
			],
			"translation":[
				-0.0010752161033451557,
				-0.002656158059835434,
				0.032726939767599106
			]
		},
		{
			"name":"Ring_Tip_R",
			"rotation":[
				-0.0420551560819149,
				0.04933872073888779,
				0.008204595185816288,
				0.9978625774383545
			],
			"scale":[
				0.9999999403953552,
				1,
				0.9999999403953552
			],
			"translation":[
				1.862645149230957e-09,
				-6.51925802230835e-09,
				-0.027964409440755844
			]
		},
		{
			"children":[
				15
			],
			"name":"Ring_Distal_R",
			"rotation":[
				-0.016906319186091423,
				0.005476025398820639,
				-0.010265580378472805,
				0.9997894167900085
			],
			"scale":[
				1,
				1,
				1.0000001192092896
			],
			"translation":[
				1.0710209608078003e-08,
				4.656612873077393e-10,
				-0.032584529370069504
			]
		},
		{
			"children":[
				16
			],
			"name":"Ring_Intermediate_R",
			"rotation":[
				-0.09675411880016327,
				0.008775926195085049,
				0.02694927155971527,
				0.9949046969413757
			],
			"scale":[
				1.0000001192092896,
				1,
				0.9999999403953552
			],
			"translation":[
				-9.66247171163559e-09,
				1.618172973394394e-08,
				-0.04541065916419029
			]
		},
		{
			"children":[
				17
			],
			"name":"Ring_Proximal_R",
			"rotation":[
				-0.07435426861047745,
				-0.07828161120414734,
				0.061874132603406906,
				0.99222731590271
			],
			"scale":[
				1,
				1.0000001192092896,
				1.0000001192092896
			],
			"translation":[
				-6.698428478557616e-10,
				2.23008100874722e-08,
				-0.06190158799290657
			]
		},
		{
			"children":[
				18
			],
			"name":"Ring_Metacarpal_R",
			"rotation":[
				-0.004501847084611654,
				-0.026127122342586517,
				0.00032127989106811583,
				0.9996484518051147
			],
			"translation":[
				0.018874293193221092,
				-0.0010418146848678589,
				0.03208692744374275
			]
		},
		{
			"name":"Little_Tip_R",
			"rotation":[
				-0.009390595369040966,
				-0.024790573865175247,
				-0.01429850421845913,
				0.9995462894439697
			],
			"scale":[
				1,
				1,
				0.9999999403953552
			],
			"translation":[
				2.1420419216156006e-08,
				1.30385160446167e-08,
				-0.02086598612368107
			]
		},
		{
			"children":[
				20
			],
			"name":"Little_Distal_R",
			"rotation":[
				-0.028679504990577698,
				-0.014530524611473083,
				0.010223162360489368,
				0.999430775642395
			],
			"translation":[
				0,
				1.862645149230957e-09,
				-0.024103650823235512
			]
		},
		{
			"children":[
				21
			],
			"name":"Little_Intermediate_R",
			"rotation":[
				-0.1662430763244629,
				-0.03715904429554939,
				-0.015001708641648293,
				0.9852702617645264
			],
			"scale":[
				1,
				0.9999999403953552,
				1
			],
			"translation":[
				-1.4901161193847656e-08,
				1.0477378964424133e-08,
				-0.03604140132665634
			]
		},
		{
			"children":[
				22
			],
			"name":"Little_Proximal_R",
			"rotation":[
				-0.0028067335952073336,
				-0.04279409721493721,
				0.09566366672515869,
				0.9944894313812256
			],
			"scale":[
				0.9999999403953552,
				1,
				1.0000001192092896
			],
			"translation":[
				5.3551048040390015e-09,
				-7.159542292356491e-09,
				-0.05130469426512718
			]
		},
		{
			"children":[
				23
			],
			"name":"Little_Metacarpal_R",
			"rotation":[
				-0.0183112695813179,
				-0.13263030350208282,
				-0.200332909822464,
				0.9705362915992737
			],
			"scale":[
				1,
				1,
				0.9999999403953552
			],
			"translation":[
				0.027398565784096718,
				-0.0046644024550914764,
				0.032835088670253754
			]
		},
		{
			"children":[
				0,
				4,
				9,
				14,
				19,
				24
			],
			"name":"Palm_R",
			"rotation":[
				-1.1030876123641065e-07,
				1.780104952331385e-08,
				-1.8051729002658418e-15,
				1
			],
			"translation":[
				3.4692493500187993e-07,
				1.2052259990014136e-07,
				-5.929623512201943e-07
			]
		},
		{
			"mesh":0,
			"name":"mesh_Hand_L",
			"skin":0
		},
		{
			"children":[
				26,
				25
			],
			"name":"Armature"
		}
	],
	"materials":[
		{
			"doubleSided":true,
			"name":"Hand",
			"pbrMetallicRoughness":{
				"baseColorTexture":{
					"index":0
				},
				"metallicFactor":0,
				"roughnessFactor":0.5
			}
		}
	],
	"meshes":[
		{
			"name":"mesh_Hand_L",
			"primitives":[
				{
					"attributes":{
						"POSITION":0,
						"NORMAL":1,
						"TEXCOORD_0":2,
						"JOINTS_0":3,
						"WEIGHTS_0":4
					},
					"indices":5,
					"material":0
				}
			]
		}
	],
	"textures":[
		{
			"sampler":0,
			"source":0
		}
	],
	"images":[
		{
			"mimeType":"image/png",
			"name":"hand",
			"uri":"hand.png"
		}
	],
	"skins":[
		{
			"inverseBindMatrices":6,
			"joints":[
				25,
				0,
				4,
				3,
				2,
				1,
				9,
				8,
				7,
				6,
				5,
				14,
				13,
				12,
				11,
				10,
				19,
				18,
				17,
				16,
				15,
				24,
				23,
				22,
				21,
				20
			],
			"name":"Armature"
		}
	],
	"accessors":[
		{
			"bufferView":0,
			"componentType":5126,
			"count":1764,
			"max":[
				0.06878987699747086,
				0.02563539333641529,
				0.07026898860931396
			],
			"min":[
				-0.08980409055948257,
				-0.05188189819455147,
				-0.14461615681648254
			],
			"type":"VEC3"
		},
		{
			"bufferView":1,
			"componentType":5126,
			"count":1764,
			"type":"VEC3"
		},
		{
			"bufferView":2,
			"componentType":5126,
			"count":1764,
			"type":"VEC2"
		},
		{
			"bufferView":3,
			"componentType":5121,
			"count":1764,
			"type":"VEC4"
		},
		{
			"bufferView":4,
			"componentType":5126,
			"count":1764,
			"type":"VEC4"
		},
		{
			"bufferView":5,
			"componentType":5123,
			"count":9150,
			"type":"SCALAR"
		},
		{
			"bufferView":6,
			"componentType":5126,
			"count":26,
			"type":"MAT4"
		}
	],
	"bufferViews":[
		{
			"buffer":0,
			"byteLength":21168,
			"byteOffset":0,
			"target":34962
		},
		{
			"buffer":0,
			"byteLength":21168,
			"byteOffset":21168,
			"target":34962
		},
		{
			"buffer":0,
			"byteLength":14112,
			"byteOffset":42336,
			"target":34962
		},
		{
			"buffer":0,
			"byteLength":7056,
			"byteOffset":56448,
			"target":34962
		},
		{
			"buffer":0,
			"byteLength":28224,
			"byteOffset":63504,
			"target":34962
		},
		{
			"buffer":0,
			"byteLength":18300,
			"byteOffset":91728,
			"target":34963
		},
		{
			"buffer":0,
			"byteLength":1664,
			"byteOffset":110028
		}
	],
	"samplers":[
		{
			"magFilter":9729,
			"minFilter":9987
		}
	],
	"buffers":[
		{
			"byteLength":111692,
			"uri":"hand_r.bin"
		}
	]
}
