{
	"asset":{
		"generator":"Khronos glTF Blender I/O v4.0.44",
		"version":"2.0"
	},
	"scene":0,
	"scenes":[
		{
			"name":"Scene",
			"nodes":[
				27
			]
		}
	],
	"nodes":[
		{
			"name":"Wrist_L",
			"rotation":[
				0,
				-1.7114194506007152e-08,
				0,
				1
			],
			"translation":[
				-0.002905123634263873,
				0.005366884171962738,
				0.06911935657262802
			]
		},
		{
			"name":"Thumb_Tip_L",
			"rotation":[
				-0.10248780250549316,
				0.0029831635765731335,
				-0.06078583374619484,
				0.9928708076477051
			],
			"scale":[
				0.9999999403953552,
				0.9999998807907104,
				1
			],
			"translation":[
				-4.6566128730773926e-09,
				3.725290298461914e-09,
				-0.029296716675162315
			]
		},
		{
			"children":[
				1
			],
			"name":"Thumb_Distal_L",
			"rotation":[
				-0.04226153716444969,
				-0.03342599421739578,
				-0.04838598147034645,
				0.9973742961883545
			],
			"scale":[
				1,
				0.9999998211860657,
				0.9999999403953552
			],
			"translation":[
				4.6566128730773926e-09,
				-1.4901161193847656e-08,
				-0.042027994990348816
			]
		},
		{
			"children":[
				2
			],
			"name":"Thumb_Proximal_L",
			"rotation":[
				-0.08135420083999634,
				-0.05321682617068291,
				0.08726542443037033,
				0.991430401802063
			],
			"scale":[
				1,
				0.9999999403953552,
				1
			],
			"translation":[
				-1.862645149230957e-09,
				2.561137080192566e-09,
				-0.034628912806510925
			]
		},
		{
			"children":[
				3
			],
			"name":"Thumb_Metacarpal_L",
			"rotation":[
				0.11908825486898422,
				-0.33998772501945496,
				-0.5559270977973938,
				0.7491137385368347
			],
			"scale":[
				1.0000001192092896,
				1,
				1
			],
			"translation":[
				0.029545623809099197,
				-0.011276576668024063,
				0.03261899575591087
			]
		},
		{
			"name":"Index_Tip_L",
			"rotation":[
				0.11176879703998566,
				0.0022802776657044888,
				-0.002266030525788665,
				0.9937290549278259
			],
			"scale":[
				1,
				1.0000001192092896,
				1
			],
			"translation":[
				-3.2014213502407074e-09,
				-7.101334631443024e-09,
				-0.027370039373636246
			]
		},
		{
			"children":[
				5
			],
			"name":"Index_Distal_L",
			"rotation":[
				-0.022148417308926582,
				0.006442618556320667,
				-0.0007624771096743643,
				0.9997336268424988
			],
			"scale":[
				1,
				0.9999999403953552,
				1
			],
			"translation":[
				8.87666828930378e-09,
				-1.5774276107549667e-08,
				-0.03155382722616196
			]
		},
		{
			"children":[
				6
			],
			"name":"Index_Intermediate_L",
			"rotation":[
				-0.16128450632095337,
				0.017973503097891808,
				0.03439294919371605,
				0.9861447215080261
			],
			"scale":[
				0.9999998807907104,
				1,
				1
			],
			"translation":[
				-8.158167474903166e-10,
				-1.1059455573558807e-08,
				-0.04232000932097435
			]
		},
		{
			"children":[
				7
			],
			"name":"Index_Proximal_L",
			"rotation":[
				-0.06444741040468216,
				-0.0702219009399414,
				-0.0018299086950719357,
				0.9954456686973572
			],
			"scale":[
				1,
				1.0000001192092896,
				1
			],
			"translation":[
				3.474269760772586e-09,
				-2.1609594114124775e-08,
				-0.06692803651094437
			]
		},
		{
			"children":[
				8
			],
			"name":"Index_Metacarpal_L",
			"rotation":[
				0.04447143152356148,
				-0.03622894361615181,
				-0.005923058371990919,
				0.9983359575271606
			],
			"scale":[
				1,
				0.9999998807907104,
				1
			],
			"translation":[
				0.018332326784729958,
				-0.004511859267950058,
				0.03042510524392128
			]
		},
		{
			"name":"Middle_Tip_L",
			"rotation":[
				0.019126685336232185,
				-0.01121223159134388,
				0.006025142967700958,
				0.9997360706329346
			],
			"scale":[
				0.9999999403953552,
				1,
				0.9999999403953552
			],
			"translation":[
				-1.6298145055770874e-09,
				-2.9744114726781845e-08,
				-0.028349125757813454
			]
		},
		{
			"children":[
				10
			],
			"name":"Middle_Distal_L",
			"rotation":[
				0.018200116232037544,
				0.0035545858554542065,
				0.023953938856720924,
				0.9995410442352295
			],
			"scale":[
				1,
				0.9999999403953552,
				1.0000001192092896
			],
			"translation":[
				4.831235855817795e-09,
				4.452886059880257e-09,
				-0.03321244567632675
			]
		},
		{
			"children":[
				11
			],
			"name":"Middle_Intermediate_L",
			"rotation":[
				-0.1197081133723259,
				-0.0028767292387783527,
				0.017025688663125038,
				0.9926589727401733
			],
			"scale":[
				0.9999998807907104,
				1,
				1
			],
			"translation":[
				-1.5788828022778034e-09,
				1.8451828509569168e-08,
				-0.0501653328537941
			]
		},
		{
			"children":[
				12
			],
			"name":"Middle_Proximal_L",
			"rotation":[
				-0.11712679266929626,
				0.0167782511562109,
				0.02702847309410572,
				0.9926073551177979
			],
			"scale":[
				1.0000001192092896,
				0.9999998211860657,
				0.9999999403953552
			],
			"translation":[
				-3.077730070799589e-09,
				-6.955815479159355e-09,
				-0.06969211995601654
			]
		},
		{
			"children":[
				13
			],
			"name":"Middle_Metacarpal_L",
			"rotation":[
				0.037875477224588394,
				0.014568245969712734,
				-0.01902545988559723,
				0.9989951252937317
			],
			"scale":[
				1,
				0.9999999403953552,
				0.9999999403953552
			],
			"translation":[
				0.0010752140078693628,
				-0.002656150609254837,
				0.0327269472181797
			]
		},
		{
			"name":"Ring_Tip_L",
			"rotation":[
				-0.05545375496149063,
				-0.0335833765566349,
				0.013554397039115429,
				0.9978042840957642
			],
			"translation":[
				3.725290298461914e-09,
				8.381903171539307e-09,
				-0.027964405715465546
			]
		},
		{
			"children":[
				15
			],
			"name":"Ring_Distal_L",
			"rotation":[
				-0.017770959064364433,
				0.00010235983063466847,
				-0.01016566064208746,
				0.9997904300689697
			],
			"scale":[
				1,
				0.9999999403953552,
				1
			],
			"translation":[
				6.05359673500061e-09,
				1.5832483768463135e-08,
				-0.03258456662297249
			]
		},
		{
			"children":[
				16
			],
			"name":"Ring_Intermediate_L",
			"rotation":[
				-0.09529439359903336,
				0.018902841955423355,
				0.025969961658120155,
				0.9949307441711426
			],
			"translation":[
				2.3283064365386963e-10,
				1.0710209608078003e-08,
				-0.0454106405377388
			]
		},
		{
			"children":[
				17
			],
			"name":"Ring_Proximal_L",
			"rotation":[
				-0.06471161544322968,
				0.08642323315143585,
				0.05352015420794487,
				0.9927129745483398
			],
			"translation":[
				-1.9096901837656333e-09,
				7.683411240577698e-09,
				-0.061901602894067764
			]
		},
		{
			"children":[
				18
			],
			"name":"Ring_Metacarpal_L",
			"rotation":[
				-0.004491185303777456,
				0.026128869503736496,
				8.734108996577561e-05,
				0.9996485114097595
			],
			"scale":[
				0.9999999403953552,
				0.9999999403953552,
				1
			],
			"translation":[
				-0.018874293193221092,
				-0.0010418109595775604,
				0.03208692744374275
			]
		},
		{
			"name":"Little_Tip_L",
			"rotation":[
				-0.006793071981519461,
				0.0256238654255867,
				0.02843230403959751,
				0.9992441534996033
			],
			"scale":[
				0.9999999403953552,
				0.9999999403953552,
				1
			],
			"translation":[
				5.587935447692871e-09,
				-3.725290298461914e-09,
				-0.020865976810455322
			]
		},
		{
			"children":[
				20
			],
			"name":"Little_Distal_L",
			"rotation":[
				-0.027409471571445465,
				0.016804106533527374,
				-0.002406484680250287,
				0.9994801878929138
			],
			"scale":[
				1,
				0.9999999403953552,
				1.0000001192092896
			],
			"translation":[
				-7.916241884231567e-09,
				1.4901161193847656e-08,
				-0.024103671312332153
			]
		},
		{
			"children":[
				21
			],
			"name":"Little_Intermediate_L",
			"rotation":[
				-0.16431179642677307,
				0.04493601992726326,
				0.040754444897174835,
				0.9845412969589233
			],
			"scale":[
				1,
				1,
				0.9999999403953552
			],
			"translation":[
				2.561137080192566e-09,
				5.9371814131736755e-09,
				-0.036041367799043655
			]
		},
		{
			"children":[
				22
			],
			"name":"Little_Proximal_L",
			"rotation":[
				-0.0020602878648787737,
				0.04283645749092102,
				-0.09221397340297699,
				0.9948152899742126
			],
			"scale":[
				1,
				1.0000001192092896,
				1.0000001192092896
			],
			"translation":[
				9.313225746154785e-10,
				-7.334165275096893e-09,
				-0.051304709166288376
			]
		},
		{
			"children":[
				23
			],
			"name":"Little_Metacarpal_L",
			"rotation":[
				-0.017384905368089676,
				0.1327548623085022,
				0.2071036696434021,
				0.9691140055656433
			],
			"scale":[
				0.9999999403953552,
				1,
				0.9999998807907104
			],
			"translation":[
				-0.02739856205880642,
				-0.0046643950045108795,
				0.03283509612083435
			]
		},
		{
			"children":[
				0,
				4,
				9,
				14,
				19,
				24
			],
			"name":"Palm_L",
			"rotation":[
				-8.557097253003576e-09,
				1.7114194506007152e-08,
				-2.928956551799625e-16,
				1
			],
			"translation":[
				-3.4692493500187993e-07,
				1.2052259990014136e-07,
				-5.929623512201943e-07
			]
		},
		{
			"mesh":0,
			"name":"mesh_Hand_L",
			"skin":0
		},
		{
			"children":[
				26,
				25
			],
			"name":"Armature"
		}
	],
	"materials":[
		{
			"doubleSided":true,
			"name":"Hand",
			"pbrMetallicRoughness":{
				"baseColorTexture":{
					"index":0
				},
				"metallicFactor":0,
				"roughnessFactor":0.5
			}
		}
	],
	"meshes":[
		{
			"name":"mesh_Hand_L",
			"primitives":[
				{
					"attributes":{
						"POSITION":0,
						"NORMAL":1,
						"TEXCOORD_0":2,
						"JOINTS_0":3,
						"WEIGHTS_0":4
					},
					"indices":5,
					"material":0
				}
			]
		}
	],
	"textures":[
		{
			"sampler":0,
			"source":0
		}
	],
	"images":[
		{
			"mimeType":"image/png",
			"name":"hand",
			"uri":"hand.png"
		}
	],
	"skins":[
		{
			"inverseBindMatrices":6,
			"joints":[
				25,
				0,
				4,
				3,
				2,
				1,
				9,
				8,
				7,
				6,
				5,
				14,
				13,
				12,
				11,
				10,
				19,
				18,
				17,
				16,
				15,
				24,
				23,
				22,
				21,
				20
			],
			"name":"Armature"
		}
	],
	"accessors":[
		{
			"bufferView":0,
			"componentType":5126,
			"count":1764,
			"max":[
				0.08980409801006317,
				0.02563539333641529,
				0.07026899605989456
			],
			"min":[
				-0.06878986209630966,
				-0.051881901919841766,
				-0.14461617171764374
			],
			"type":"VEC3"
		},
		{
			"bufferView":1,
			"componentType":5126,
			"count":1764,
			"type":"VEC3"
		},
		{
			"bufferView":2,
			"componentType":5126,
			"count":1764,
			"type":"VEC2"
		},
		{
			"bufferView":3,
			"componentType":5121,
			"count":1764,
			"type":"VEC4"
		},
		{
			"bufferView":4,
			"componentType":5126,
			"count":1764,
			"type":"VEC4"
		},
		{
			"bufferView":5,
			"componentType":5123,
			"count":9150,
			"type":"SCALAR"
		},
		{
			"bufferView":6,
			"componentType":5126,
			"count":26,
			"type":"MAT4"
		}
	],
	"bufferViews":[
		{
			"buffer":0,
			"byteLength":21168,
			"byteOffset":0,
			"target":34962
		},
		{
			"buffer":0,
			"byteLength":21168,
			"byteOffset":21168,
			"target":34962
		},
		{
			"buffer":0,
			"byteLength":14112,
			"byteOffset":42336,
			"target":34962
		},
		{
			"buffer":0,
			"byteLength":7056,
			"byteOffset":56448,
			"target":34962
		},
		{
			"buffer":0,
			"byteLength":28224,
			"byteOffset":63504,
			"target":34962
		},
		{
			"buffer":0,
			"byteLength":18300,
			"byteOffset":91728,
			"target":34963
		},
		{
			"buffer":0,
			"byteLength":1664,
			"byteOffset":110028
		}
	],
	"samplers":[
		{
			"magFilter":9729,
			"minFilter":9987
		}
	],
	"buffers":[
		{
			"byteLength":111692,
			"uri":"hand_l.bin"
		}
	]
}
