{
	"asset":{
		"generator":"Khronos glTF Blender I/O v4.0.44",
		"version":"2.0"
	},
	"scene":0,
	"scenes":[
		{
			"name":"Scene",
			"nodes":[
				26
			]
		}
	],
	"nodes":[
		{
			"name":"Thumb_Tip_L",
			"rotation":[
				0.0012999542523175478,
				0.02829466387629509,
				0.009501202031970024,
				0.9995536804199219
			],
			"scale":[
				1,
				0.9999999403953552,
				0.9999998211860657
			],
			"translation":[
				-6.51925802230835e-09,
				8.381903171539307e-09,
				-0.030749447643756866
			]
		},
		{
			"children":[
				0
			],
			"name":"Thumb_Distal_L",
			"rotation":[
				0.005640652030706406,
				-0.028977006673812866,
				-0.011601321399211884,
				0.9994968175888062
			],
			"scale":[
				1,
				0.9999999403953552,
				1
			],
			"translation":[
				1.210719347000122e-08,
				1.6763806343078613e-08,
				-0.042147889733314514
			]
		},
		{
			"children":[
				1
			],
			"name":"Thumb_Proximal_L",
			"rotation":[
				-0.08570671081542969,
				-0.020723210647702217,
				0.027135709300637245,
				0.9957351684570312
			],
			"scale":[
				1,
				1.0000001192092896,
				1
			],
			"translation":[
				3.073364496231079e-08,
				5.122274160385132e-09,
				-0.04491648077964783
			]
		},
		{
			"children":[
				2
			],
			"name":"Thumb_Metacarpal_L",
			"rotation":[
				0.09896571189165115,
				-0.31005433201789856,
				-0.3618450462818146,
				0.8735790252685547
			],
			"scale":[
				0.9999999403953552,
				0.9999998807907104,
				0.9999999403953552
			],
			"translation":[
				0.020045261830091476,
				-0.01000000536441803,
				-0.027139466255903244
			]
		},
		{
			"name":"Index_Tip_L",
			"rotation":[
				-0.1051386147737503,
				0.05383673682808876,
				-0.0025540904607623816,
				0.9929959774017334
			],
			"scale":[
				1,
				0.9999999403953552,
				0.9999998807907104
			],
			"translation":[
				-1.0477378964424133e-09,
				-9.022187441587448e-10,
				-0.027122441679239273
			]
		},
		{
			"children":[
				4
			],
			"name":"Index_Distal_L",
			"rotation":[
				-0.006294738035649061,
				-0.011408032849431038,
				0.014059693552553654,
				0.9998162984848022
			],
			"scale":[
				0.9999999403953552,
				0.9999998211860657,
				0.9999998807907104
			],
			"translation":[
				1.714215613901615e-08,
				4.6566128730773926e-09,
				-0.030106835067272186
			]
		},
		{
			"children":[
				5
			],
			"name":"Index_Intermediate_L",
			"rotation":[
				-0.18597334623336792,
				0.010402951389551163,
				0.02551461011171341,
				0.9821683764457703
			],
			"scale":[
				1,
				0.9999999403953552,
				0.9999999403953552
			],
			"translation":[
				2.9103830456733704e-10,
				-1.3387762010097504e-08,
				-0.03811631724238396
			]
		},
		{
			"children":[
				6
			],
			"name":"Index_Proximal_L",
			"rotation":[
				0.07441839575767517,
				-0.11123813688755035,
				-0.0020758467726409435,
				0.9910013675689697
			],
			"scale":[
				0.9999999403953552,
				1,
				1
			],
			"translation":[
				-3.446585594701901e-08,
				2.15255795410485e-08,
				-0.08036758005619049
			]
		},
		{
			"children":[
				7
			],
			"name":"Index_Metacarpal_L",
			"rotation":[
				0.025219613686203957,
				-0.00024500273866578937,
				-1.2983005603928177e-07,
				0.9996819496154785
			],
			"scale":[
				1,
				1,
				0.9999999403953552
			],
			"translation":[
				0.022450437769293785,
				0.009999996051192284,
				-0.027139831334352493
			]
		},
		{
			"name":"Middle_Tip_L",
			"rotation":[
				-0.1568940132856369,
				-0.010808070190250874,
				-0.0025405660271644592,
				0.987553060054779
			],
			"scale":[
				1,
				0.9999999403953552,
				1
			],
			"translation":[
				2.4994733394123614e-08,
				-6.119080353528261e-09,
				-0.02824700064957142
			]
		},
		{
			"children":[
				9
			],
			"name":"Middle_Distal_L",
			"rotation":[
				0.030769770964980125,
				0.011196397244930267,
				0.0012837019748985767,
				0.9994630217552185
			],
			"scale":[
				0.9999999403953552,
				1,
				1
			],
			"translation":[
				-1.6938429325819016e-08,
				4.549292498268187e-09,
				-0.031740039587020874
			]
		},
		{
			"children":[
				10
			],
			"name":"Middle_Intermediate_L",
			"rotation":[
				-0.07791726291179657,
				-0.03916333243250847,
				-0.005997750908136368,
				0.9961722493171692
			],
			"scale":[
				0.9999998807907104,
				1.0000001192092896,
				0.9999998807907104
			],
			"translation":[
				-1.0346411727368832e-08,
				7.983544492162764e-09,
				-0.045003391802310944
			]
		},
		{
			"children":[
				11
			],
			"name":"Middle_Proximal_L",
			"rotation":[
				-0.05410470813512802,
				0.01197724137455225,
				-0.0004447281244210899,
				0.9984633326530457
			],
			"scale":[
				1,
				1,
				0.9999999403953552
			],
			"translation":[
				3.550667315721512e-09,
				1.709850039333105e-10,
				-0.08046325296163559
			]
		},
		{
			"children":[
				12
			],
			"name":"Middle_Metacarpal_L",
			"rotation":[
				0.0499776266515255,
				0.035022374242544174,
				-2.1145511652775895e-07,
				0.9981361031532288
			],
			"scale":[
				1,
				1.0000001192092896,
				1
			],
			"translation":[
				0.0035728542134165764,
				0.009999996051192284,
				-0.027139829471707344
			]
		},
		{
			"name":"Ring_Tip_L",
			"rotation":[
				-0.1352439671754837,
				-0.026298433542251587,
				0.008499406278133392,
				0.990426778793335
			],
			"scale":[
				0.9999998807907104,
				1,
				1
			],
			"translation":[
				1.2079544831067324e-07,
				-1.0477378964424133e-09,
				-0.032901063561439514
			]
		},
		{
			"children":[
				14
			],
			"name":"Ring_Distal_L",
			"rotation":[
				0.011438659392297268,
				0.0019273216603323817,
				-0.013675450347363949,
				0.9998392462730408
			],
			"scale":[
				0.9999998807907104,
				1.0000001192092896,
				0.9999999403953552
			],
			"translation":[
				5.029141902923584e-08,
				7.101334631443024e-09,
				-0.02704012766480446
			]
		},
		{
			"children":[
				15
			],
			"name":"Ring_Intermediate_L",
			"rotation":[
				-0.09900744259357452,
				-0.014726709574460983,
				-0.0191922839730978,
				0.994792640209198
			],
			"translation":[
				-3.2229581847786903e-07,
				1.04919308796525e-08,
				-0.04013119637966156
			]
		},
		{
			"children":[
				16
			],
			"name":"Ring_Proximal_L",
			"rotation":[
				-0.001759610720910132,
				0.05091540515422821,
				0.004247794859111309,
				0.9986923933029175
			],
			"scale":[
				1,
				1,
				0.9999998807907104
			],
			"translation":[
				6.704794941470027e-08,
				2.3283064365386963e-10,
				-0.0739438384771347
			]
		},
		{
			"children":[
				17
			],
			"name":"Ring_Metacarpal_L",
			"rotation":[
				0.01808563992381096,
				0.07036377489566803,
				-5.043634132562147e-07,
				0.9973574280738831
			],
			"translation":[
				-0.013054745271801949,
				0.009999996051192284,
				-0.027139827609062195
			]
		},
		{
			"name":"Little_Tip_L",
			"rotation":[
				-0.035952355712652206,
				-0.013371814973652363,
				0.020332809537649155,
				0.9990571737289429
			],
			"scale":[
				0.9999998807907104,
				0.9999998807907104,
				1
			],
			"translation":[
				7.8580342233181e-09,
				2.852175384759903e-09,
				-0.019589994102716446
			]
		},
		{
			"children":[
				19
			],
			"name":"Little_Distal_L",
			"rotation":[
				-0.017415370792150497,
				0.012775514274835587,
				-0.014375263825058937,
				0.9996633529663086
			],
			"scale":[
				0.9999998807907104,
				0.9999998807907104,
				1
			],
			"translation":[
				1.511943992227316e-07,
				2.444721758365631e-09,
				-0.01730155758559704
			]
		},
		{
			"children":[
				20
			],
			"name":"Little_Intermediate_L",
			"rotation":[
				-0.10672976076602936,
				-0.04031941667199135,
				-0.03360162302851677,
				0.9929018020629883
			],
			"scale":[
				0.9999998807907104,
				1,
				0.9999998807907104
			],
			"translation":[
				-3.730747266672552e-09,
				4.307366907596588e-09,
				-0.03312354162335396
			]
		},
		{
			"children":[
				21
			],
			"name":"Little_Proximal_L",
			"rotation":[
				-0.0501767173409462,
				0.08933926373720169,
				0.0007296249968931079,
				0.9947363138198853
			],
			"scale":[
				0.9999999403953552,
				1,
				1
			],
			"translation":[
				-2.3765096557326615e-08,
				1.506123226135969e-08,
				-0.06571116298437119
			]
		},
		{
			"children":[
				22
			],
			"name":"Little_Metacarpal_L",
			"rotation":[
				0.0284477099776268,
				0.09093936532735825,
				-9.71482222666964e-07,
				0.9954500198364258
			],
			"translation":[
				-0.029954737052321434,
				-3.7252512186114473e-09,
				-0.02713964506983757
			]
		},
		{
			"children":[
				3,
				8,
				13,
				18,
				23
			],
			"name":"Wrist_L",
			"rotation":[
				6.472832410509e-06,
				6.421635134756798e-06,
				0.7071067690849304,
				0.7071067690849304
			],
			"scale":[
				1,
				0.9999999403953552,
				1
			],
			"translation":[
				3.8642522071086205e-08,
				-1.8697472114581615e-05,
				0.027175573632121086
			]
		},
		{
			"mesh":0,
			"name":"LeftHandOpenXRMesh",
			"skin":0
		},
		{
			"children":[
				25,
				24
			],
			"name":"LeftHandOpenXR"
		}
	],
	"materials":[
		{
			"doubleSided":true,
			"name":"Hand",
			"pbrMetallicRoughness":{
				"baseColorTexture":{
					"index":0
				},
				"metallicFactor":0,
				"roughnessFactor":0.5
			}
		}
	],
	"meshes":[
		{
			"name":"LeftHandOpenXR",
			"primitives":[
				{
					"attributes":{
						"POSITION":0,
						"NORMAL":1,
						"TEXCOORD_0":2,
						"JOINTS_0":3,
						"WEIGHTS_0":4
					},
					"indices":5,
					"material":0
				}
			]
		}
	],
	"textures":[
		{
			"sampler":0,
			"source":0
		}
	],
	"images":[
		{
			"mimeType":"image/png",
			"name":"hand",
			"uri":"hand.png"
		}
	],
	"skins":[
		{
			"inverseBindMatrices":6,
			"joints":[
				24,
				3,
				2,
				1,
				0,
				8,
				7,
				6,
				5,
				4,
				13,
				12,
				11,
				10,
				9,
				18,
				17,
				16,
				15,
				14,
				23,
				22,
				21,
				20,
				19
			],
			"name":"LeftHandOpenXR"
		}
	],
	"accessors":[
		{
			"bufferView":0,
			"componentType":5126,
			"count":603,
			"max":[
				0.03515051305294037,
				0.09001174569129944,
				0.02576880156993866
			],
			"min":[
				-0.029946302995085716,
				-0.06838366389274597,
				-0.18542321026325226
			],
			"type":"VEC3"
		},
		{
			"bufferView":1,
			"componentType":5126,
			"count":603,
			"type":"VEC3"
		},
		{
			"bufferView":2,
			"componentType":5126,
			"count":603,
			"type":"VEC2"
		},
		{
			"bufferView":3,
			"componentType":5121,
			"count":603,
			"type":"VEC4"
		},
		{
			"bufferView":4,
			"componentType":5126,
			"count":603,
			"type":"VEC4"
		},
		{
			"bufferView":5,
			"componentType":5123,
			"count":2814,
			"type":"SCALAR"
		},
		{
			"bufferView":6,
			"componentType":5126,
			"count":25,
			"type":"MAT4"
		}
	],
	"bufferViews":[
		{
			"buffer":0,
			"byteLength":7236,
			"byteOffset":0,
			"target":34962
		},
		{
			"buffer":0,
			"byteLength":7236,
			"byteOffset":7236,
			"target":34962
		},
		{
			"buffer":0,
			"byteLength":4824,
			"byteOffset":14472,
			"target":34962
		},
		{
			"buffer":0,
			"byteLength":2412,
			"byteOffset":19296,
			"target":34962
		},
		{
			"buffer":0,
			"byteLength":9648,
			"byteOffset":21708,
			"target":34962
		},
		{
			"buffer":0,
			"byteLength":5628,
			"byteOffset":31356,
			"target":34963
		},
		{
			"buffer":0,
			"byteLength":1600,
			"byteOffset":36984
		}
	],
	"samplers":[
		{
			"magFilter":9729,
			"minFilter":9987
		}
	],
	"buffers":[
		{
			"byteLength":38584,
			"uri":"LeftHandOpenXR.bin"
		}
	]
}
