{
	"asset":{
		"generator":"Khronos glTF Blender I/O v4.0.44",
		"version":"2.0"
	},
	"scene":0,
	"scenes":[
		{
			"name":"Scene",
			"nodes":[
				26
			]
		}
	],
	"nodes":[
		{
			"name":"Thumb_Tip_R",
			"rotation":[
				0.001584369339980185,
				-0.028279781341552734,
				-0.0195435993373394,
				0.9994077682495117
			],
			"scale":[
				1,
				0.9999999403953552,
				1
			],
			"translation":[
				-2.7939677238464355e-09,
				-5.587935447692871e-09,
				-0.030749451369047165
			]
		},
		{
			"children":[
				0
			],
			"name":"Thumb_Distal_R",
			"rotation":[
				0.005640506744384766,
				0.028977036476135254,
				0.011601302772760391,
				0.9994968175888062
			],
			"scale":[
				1,
				0.9999998807907104,
				1
			],
			"translation":[
				-2.2351741790771484e-08,
				1.5832483768463135e-08,
				-0.04214789345860481
			]
		},
		{
			"children":[
				1
			],
			"name":"Thumb_Proximal_R",
			"rotation":[
				-0.08570674061775208,
				0.02072315849363804,
				-0.02713562548160553,
				0.9957351684570312
			],
			"scale":[
				0.9999999403953552,
				1,
				1
			],
			"translation":[
				-1.955777406692505e-08,
				-8.381903171539307e-09,
				-0.04491647705435753
			]
		},
		{
			"children":[
				2
			],
			"name":"Thumb_Metacarpal_R",
			"rotation":[
				0.0986638143658638,
				0.3093254268169403,
				0.3619273900985718,
				0.873837411403656
			],
			"scale":[
				1,
				0.9999998211860657,
				0.9999999403953552
			],
			"translation":[
				-0.019999952986836433,
				-0.009999999776482582,
				-0.027172870934009552
			]
		},
		{
			"name":"Index_Tip_R",
			"rotation":[
				-0.10500182211399078,
				-0.054083097726106644,
				0.00039221355109475553,
				0.9930002689361572
			],
			"scale":[
				1,
				0.9999998211860657,
				1
			],
			"translation":[
				1.1583324521780014e-08,
				5.6461431086063385e-09,
				-0.027121709659695625
			]
		},
		{
			"children":[
				4
			],
			"name":"Index_Distal_R",
			"rotation":[
				-0.006300304550677538,
				0.011409261263906956,
				-0.014137116260826588,
				0.9998151659965515
			],
			"scale":[
				1,
				1,
				0.9999999403953552
			],
			"translation":[
				-2.034357748925686e-08,
				-1.280568540096283e-09,
				-0.030106861144304276
			]
		},
		{
			"children":[
				5
			],
			"name":"Index_Intermediate_R",
			"rotation":[
				-0.18597325682640076,
				-0.010402950458228588,
				-0.02551460638642311,
				0.9821683764457703
			],
			"scale":[
				1,
				0.9999998807907104,
				0.9999999403953552
			],
			"translation":[
				5.122274160385132e-09,
				-4.831235855817795e-09,
				-0.03811633586883545
			]
		},
		{
			"children":[
				6
			],
			"name":"Index_Proximal_R",
			"rotation":[
				0.07441829144954681,
				0.11123812943696976,
				0.002075834898278117,
				0.9910013675689697
			],
			"scale":[
				0.9999998807907104,
				0.9999998807907104,
				1
			],
			"translation":[
				3.2631220392431715e-08,
				7.14047132532869e-09,
				-0.0803675726056099
			]
		},
		{
			"children":[
				7
			],
			"name":"Index_Metacarpal_R",
			"rotation":[
				0.02521960809826851,
				-0.0005889583844691515,
				2.1169829778955318e-05,
				0.999681830406189
			],
			"scale":[
				0.9999999403953552,
				0.9999998211860657,
				0.9999999403953552
			],
			"translation":[
				-0.022405127063393593,
				0.009999999776482582,
				-0.027177250012755394
			]
		},
		{
			"name":"Middle_Tip_R",
			"rotation":[
				-0.15370477735996246,
				0.011463022790849209,
				-0.0013267083559185266,
				0.9880494475364685
			],
			"scale":[
				1,
				0.9999999403953552,
				1
			],
			"translation":[
				9.618815965950489e-09,
				-2.23008100874722e-09,
				-0.028247453272342682
			]
		},
		{
			"children":[
				9
			],
			"name":"Middle_Distal_R",
			"rotation":[
				0.030728906393051147,
				-0.011317402124404907,
				0.0027318736538290977,
				0.999459981918335
			],
			"scale":[
				0.9999999403953552,
				1.0000001192092896,
				0.9999999403953552
			],
			"translation":[
				1.6178091755136847e-08,
				4.576577339321375e-09,
				-0.03174003213644028
			]
		},
		{
			"children":[
				10
			],
			"name":"Middle_Intermediate_R",
			"rotation":[
				-0.07791730761528015,
				0.03916332498192787,
				0.005997754633426666,
				0.9961722493171692
			],
			"scale":[
				0.9999998807907104,
				1,
				0.9999999403953552
			],
			"translation":[
				1.157604856416583e-08,
				7.918060873635113e-09,
				-0.04500338435173035
			]
		},
		{
			"children":[
				11
			],
			"name":"Middle_Proximal_R",
			"rotation":[
				-0.05410469323396683,
				-0.0119772395119071,
				0.00044472250738181174,
				0.9984633326530457
			],
			"scale":[
				1,
				1.0000001192092896,
				0.9999999403953552
			],
			"translation":[
				-4.43833414465189e-09,
				-1.472699295845814e-08,
				-0.08046325296163559
			]
		},
		{
			"children":[
				12
			],
			"name":"Middle_Metacarpal_R",
			"rotation":[
				0.0499776192009449,
				-0.03585503622889519,
				4.1904811951098964e-05,
				0.9981065392494202
			],
			"scale":[
				1,
				0.9999999403953552,
				0.9999999403953552
			],
			"translation":[
				-0.0035275674890726805,
				0.009999998845160007,
				-0.0271457526832819
			]
		},
		{
			"name":"Ring_Tip_R",
			"rotation":[
				-0.13524392247200012,
				0.026298409327864647,
				-0.008499403484165668,
				0.990426778793335
			],
			"scale":[
				0.9999999403953552,
				1,
				1
			],
			"translation":[
				-1.1848169378936291e-07,
				6.984919309616089e-10,
				-0.03290107846260071
			]
		},
		{
			"children":[
				14
			],
			"name":"Ring_Distal_R",
			"rotation":[
				0.011438592337071896,
				-0.0019273116486147046,
				0.013675433583557606,
				0.9998392462730408
			],
			"scale":[
				0.9999999403953552,
				1.0000001192092896,
				0.9999999403953552
			],
			"translation":[
				-4.7395587898790836e-08,
				3.6670826375484467e-09,
				-0.027040129527449608
			]
		},
		{
			"children":[
				15
			],
			"name":"Ring_Intermediate_R",
			"rotation":[
				-0.09900742024183273,
				0.014726717956364155,
				0.019192297011613846,
				0.994792640209198
			],
			"translation":[
				3.233290044590831e-07,
				3.65253072232008e-09,
				-0.04013118892908096
			]
		},
		{
			"children":[
				16
			],
			"name":"Ring_Proximal_R",
			"rotation":[
				-0.001759612699970603,
				-0.050915416330099106,
				-0.004247794859111309,
				0.9986923933029175
			],
			"scale":[
				0.9999999403953552,
				1,
				0.9999998211860657
			],
			"translation":[
				-6.51452864985913e-08,
				-7.53789208829403e-09,
				-0.07394383102655411
			]
		},
		{
			"children":[
				17
			],
			"name":"Ring_Metacarpal_R",
			"rotation":[
				0.01808563992381096,
				-0.07119578123092651,
				1.559381780680269e-05,
				0.9972984194755554
			],
			"scale":[
				0.9999999403953552,
				0.9999997615814209,
				0.9999999403953552
			],
			"translation":[
				0.01310000941157341,
				0.009999998845160007,
				-0.027118008583784103
			]
		},
		{
			"name":"Little_Tip_R",
			"rotation":[
				-0.03595234081149101,
				0.013371843844652176,
				-0.020332802087068558,
				0.9990571737289429
			],
			"scale":[
				0.9999998807907104,
				0.9999998807907104,
				0.9999999403953552
			],
			"translation":[
				-6.28642737865448e-09,
				-2.7939677238464355e-09,
				-0.019589990377426147
			]
		},
		{
			"children":[
				19
			],
			"name":"Little_Distal_R",
			"rotation":[
				-0.01741546392440796,
				-0.012775533832609653,
				0.014375295490026474,
				0.9996633529663086
			],
			"scale":[
				1,
				1,
				1.000000238418579
			],
			"translation":[
				-1.4941906556487083e-07,
				-7.916241884231567e-09,
				-0.017301559448242188
			]
		},
		{
			"children":[
				20
			],
			"name":"Little_Intermediate_R",
			"rotation":[
				-0.1067296639084816,
				0.040319401770830154,
				0.03360160067677498,
				0.9929018616676331
			],
			"scale":[
				1,
				0.9999998807907104,
				1
			],
			"translation":[
				7.3705450631678104e-09,
				7.450580596923828e-09,
				-0.03312354534864426
			]
		},
		{
			"children":[
				21
			],
			"name":"Little_Proximal_R",
			"rotation":[
				-0.0501767173409462,
				-0.0893392339348793,
				-0.0007296538096852601,
				0.9947363138198853
			],
			"translation":[
				1.7325874068774283e-08,
				7.275957614183426e-09,
				-0.06571117043495178
			]
		},
		{
			"children":[
				22
			],
			"name":"Little_Metacarpal_R",
			"rotation":[
				0.028447700664401054,
				-0.09176977723836899,
				2.4712999220355414e-05,
				0.9953738451004028
			],
			"scale":[
				1,
				0.9999998211860657,
				0.9999999403953552
			],
			"translation":[
				0.029999976977705956,
				-3.108624468950438e-14,
				-0.02708962745964527
			]
		},
		{
			"children":[
				3,
				8,
				13,
				18,
				23
			],
			"name":"Wrist_R",
			"rotation":[
				0.0005963600124232471,
				0.0005834656185470521,
				-0.7071065306663513,
				0.7071065306663513
			],
			"scale":[
				1,
				0.9999999403953552,
				1
			],
			"translation":[
				-3.8642522071086205e-08,
				-1.8697472114581615e-05,
				0.027175573632121086
			]
		},
		{
			"mesh":0,
			"name":"RightHandOpenXRMesh",
			"skin":0
		},
		{
			"children":[
				25,
				24
			],
			"name":"RightHandOpenXR"
		}
	],
	"materials":[
		{
			"doubleSided":true,
			"name":"Hand",
			"pbrMetallicRoughness":{
				"baseColorTexture":{
					"index":0
				},
				"metallicFactor":0,
				"roughnessFactor":0.5
			}
		}
	],
	"meshes":[
		{
			"name":"RightHandOpenXR",
			"primitives":[
				{
					"attributes":{
						"POSITION":0,
						"NORMAL":1,
						"TEXCOORD_0":2,
						"JOINTS_0":3,
						"WEIGHTS_0":4
					},
					"indices":5,
					"material":0
				}
			]
		}
	],
	"textures":[
		{
			"sampler":0,
			"source":0
		}
	],
	"images":[
		{
			"mimeType":"image/png",
			"name":"hand",
			"uri":"hand.png"
		}
	],
	"skins":[
		{
			"inverseBindMatrices":6,
			"joints":[
				24,
				3,
				2,
				1,
				0,
				8,
				7,
				6,
				5,
				4,
				13,
				12,
				11,
				10,
				9,
				18,
				17,
				16,
				15,
				14,
				23,
				22,
				21,
				20,
				19
			],
			"name":"RightHandOpenXR"
		}
	],
	"accessors":[
		{
			"bufferView":0,
			"componentType":5126,
			"count":603,
			"max":[
				0.02935725450515747,
				0.09001174569129944,
				0.025806419551372528
			],
			"min":[
				-0.035739559680223465,
				-0.06838366389274597,
				-0.18542321026325226
			],
			"type":"VEC3"
		},
		{
			"bufferView":1,
			"componentType":5126,
			"count":603,
			"type":"VEC3"
		},
		{
			"bufferView":2,
			"componentType":5126,
			"count":603,
			"type":"VEC2"
		},
		{
			"bufferView":3,
			"componentType":5121,
			"count":603,
			"type":"VEC4"
		},
		{
			"bufferView":4,
			"componentType":5126,
			"count":603,
			"type":"VEC4"
		},
		{
			"bufferView":5,
			"componentType":5123,
			"count":2814,
			"type":"SCALAR"
		},
		{
			"bufferView":6,
			"componentType":5126,
			"count":25,
			"type":"MAT4"
		}
	],
	"bufferViews":[
		{
			"buffer":0,
			"byteLength":7236,
			"byteOffset":0,
			"target":34962
		},
		{
			"buffer":0,
			"byteLength":7236,
			"byteOffset":7236,
			"target":34962
		},
		{
			"buffer":0,
			"byteLength":4824,
			"byteOffset":14472,
			"target":34962
		},
		{
			"buffer":0,
			"byteLength":2412,
			"byteOffset":19296,
			"target":34962
		},
		{
			"buffer":0,
			"byteLength":9648,
			"byteOffset":21708,
			"target":34962
		},
		{
			"buffer":0,
			"byteLength":5628,
			"byteOffset":31356,
			"target":34963
		},
		{
			"buffer":0,
			"byteLength":1600,
			"byteOffset":36984
		}
	],
	"samplers":[
		{
			"magFilter":9729,
			"minFilter":9987
		}
	],
	"buffers":[
		{
			"byteLength":38584,
			"uri":"RightHandOpenXR.bin"
		}
	]
}
